<?xml version="1.0" encoding="utf-8"?>
<!-- Generator: Adobe Illustrator 24.2.0, SVG Export Plug-In . SVG Version: 6.00 Build 0)  -->
<svg version="1.1" id="Layer_1" xmlns="http://www.w3.org/2000/svg" xmlns:xlink="http://www.w3.org/1999/xlink" x="0px" y="0px"
	 viewBox="0 0 550.944 734" enable-background="new 0 0 550.944 734" xml:space="preserve">
<path fill-rule="evenodd" clip-rule="evenodd" fill="#0D8AD5" d="M536.486,97.287l7.14,43.76l-8.422,380.627l-6.496,48.627
	c0,0-41.169,152.697-230.513,157.239C108.862,732.072,77.346,615.408,77.346,615.408l36.684-402.508l35.038-105.887L536.486,97.287"
	/>
<path fill="none" stroke="#231F20" stroke-width="1.6375" stroke-miterlimit="2.614" d="M536.486,97.287l7.14,43.76l-8.422,380.627
	l-6.496,48.626c0,0-41.169,152.697-230.513,157.24C108.862,732.074,77.346,615.407,77.346,615.407l36.684-402.508l35.038-105.887
	L536.486,97.287z"/>
<path fill-rule="evenodd" clip-rule="evenodd" fill="#ED1C24" d="M472.27,0c0,0,78.673,8.637,78.673,144.376
	c0,135.734-8.647,357.917-11.238,400.286c-2.596,42.357-57.06,188.474-236.03,189.332c-178.95,0.866-217.858-92.508-217.858-92.508
	l34.151,18.593c0,0,48.197,61.377,183.932,61.377c135.734,0,222.185-114.977,225.645-178.959
	c3.455-63.97,7.778-408.066,7.778-408.066s-14.693,47.555-85.153,55.333c0.429,22.911-10.814,40.635-119.319,41.064
	c-108.493,0.424-245.962,6.48-274.488-10.804c-28.526-17.295-52.303-40.206-52.303-83.002c0-42.797,15.998-81.694,102.881-81.694
	c86.89,0,184.144,12.536,275.359,10.799C475.51,64.394,488.047,53.161,472.27,0"/>
<path fill-rule="evenodd" clip-rule="evenodd" fill="#FFFFFF" d="M495.611,27.444c0,0,25.502,26.36,25.502,57.06
	c0,30.689-30.26,56.621-65.708,56.621c-35.437,0-76.506-2.151-76.506-2.151v-19.022c0,0,54.904,2.157,73.915,2.157
	c19.027,0,54.904-13.824,54.904-36.306C507.718,63.321,508.576,51.214,495.611,27.444"/>
<path fill-rule="evenodd" clip-rule="evenodd" fill="#FFFFFF" d="M537.324,134.43c0,0-27.01,46.471-99.213,46.471
	c-72.183,0-258.49-2.602-258.49-2.602l0.429,14.698c0,0,225.22,3.894,259.37,3.894S525.012,190.836,537.324,134.43"/>
<path fill-rule="evenodd" clip-rule="evenodd" fill="#231F20" d="M274.544,410.146c0,0,13.94-15.236,33.391-20.103
	c-7.459-16.534-59.653-16.856-67.765-0.974C255.086,392.958,274.544,410.146,274.544,410.146 M46.53,212.256
	c0,0,117.093-0.89,134.603,6.465c17.508,7.349,30.912,19.231,28.963,41.498c-1.949,22.257-27.453,24.858-33.508,24.858v12.751
	l20.103-10.809l13.405,17.509l15.987-5.402l-1.939-26.586l41.716-4.104l1.939,22.911l19.032,0.429l3.02-21.828l35.652,3.46
	L324,299.341l15.991,8.862l16.211-20.315l27.884,17.504l-12.542,24.424l15.347,14.478l22.482-11.668l26.586,48.42h10.369
	l-6.695,183.491c0,0-13.191,41.502-55.548,41.502c-42.362,0-83.217,0.439-101.37,28.965c-23.565-23.34-39.338-22.481-60.522-22.481
	c-21.176,0-44.523-0.644-49.924-4.32c3.237,11.456-0.869,30.904-4.33,33.283c23.136,16.856,36.54,26.157,32.639,31.129
	c-3.889,4.971-14.046-6.055-38.469-22.482c-6.706-4.542-9.299-1.724-13.619,3.247c-4.317,4.962-46.901,24.85-86.237-18.805
	c3.888-3.676,12.751-4.115,12.751-4.115s-33.283-29.821-37.396-37.171c7.136-5.4,14.271-3.676,15.783-2.807
	c1.51,0.858-31.343-38.04-34.151-49.495c5.84-3.247,10.16-0.215,10.16-0.215S4.978,506.191,6.706,494.513
	c5.84-2.378,12.536,2.379,12.536,2.379S-0.43,458.423,0.007,446.743c8.647-2.593,14.907,3.022,14.907,3.022
	s-2.593-39.552-0.858-50.138c9.292-1.949,15.132,5.4,15.132,5.4s-7.138-33.924,5.4-54.243c5.84,1.942,8.209,9.066,8.209,9.066
	s7.135-28.093,20.315-41.488l9.302-0.869v-42.362C72.412,275.131,57.71,240.982,46.53,212.256z"/>
<path fill="none" stroke="#231F20" stroke-width="1.6375" stroke-miterlimit="2.614" d="M274.544,410.145
	c0,0,13.94-15.236,33.391-20.101c-7.459-16.534-59.653-16.856-67.765-0.976C255.086,392.96,274.544,410.145,274.544,410.145z
	 M46.53,212.256c0,0,117.093-0.89,134.603,6.459c17.508,7.354,30.912,19.236,28.963,41.504
	c-1.949,22.257-27.453,24.858-33.508,24.858v12.751l20.103-10.809l13.405,17.509l15.987-5.402l-1.939-26.586l41.716-4.104
	l1.939,22.911l19.032,0.429l3.02-21.828l35.652,3.46L324,299.341l15.991,8.862l16.211-20.315l27.884,17.509l-12.542,24.419
	l15.347,14.478l22.482-11.673l26.586,48.424h10.369l-6.695,183.495c0,0-13.191,41.501-55.548,41.501
	c-42.362,0-83.217,0.437-101.37,28.963c-23.565-23.34-39.338-22.481-60.522-22.481c-21.176,0-44.523-0.644-49.924-4.317
	c3.237,11.455-0.869,30.904-4.33,33.283c23.136,16.856,36.54,26.155,32.639,31.126c-3.889,4.974-14.046-6.052-38.469-22.479
	c-6.706-4.545-9.299-1.727-13.619,3.244c-4.317,4.964-46.901,24.85-86.237-18.805c3.888-3.673,12.751-4.113,12.751-4.113
	s-33.283-29.824-37.396-37.174c7.136-5.401,14.271-3.674,15.783-2.808c1.51,0.858-31.343-38.04-34.151-49.495
	c5.84-3.247,10.16-0.215,10.16-0.215S4.978,506.193,6.706,494.513c5.84-2.379,12.536,2.379,12.536,2.379
	S-0.43,458.422,0.007,446.742c8.647-2.593,14.907,3.022,14.907,3.022s-2.593-39.55-0.858-50.136
	c9.292-1.952,15.132,5.401,15.132,5.401s-7.138-33.927,5.4-54.245c5.84,1.942,8.209,9.066,8.209,9.066s7.135-28.093,20.315-41.488
	l9.302-0.869v-42.357C72.412,275.137,57.71,240.982,46.53,212.256z"/>
<path fill-rule="evenodd" clip-rule="evenodd" fill="#FFFFFF" d="M70.688,229.519c0,0,95.743,1.084,95.743,0
	c0-1.073,27.668,1.298,27.668,22.921c0,21.613-16.213,22.471-43.45,22.471H93.811L70.688,229.519"/>
<path fill-rule="evenodd" clip-rule="evenodd" fill="#FFFFFF" d="M99.865,282.475h48.841c8.199,0,14.917,6.716,14.917,14.913v0.429
	c0,8.208-6.718,14.918-14.917,14.918H99.865c-8.209,0-14.917-6.711-14.917-14.918v-0.429
	C84.948,289.191,91.657,282.475,99.865,282.475"/>
<path fill-rule="evenodd" clip-rule="evenodd" fill="#FFFFFF" d="M114.772,325.487c8.433,0.44,33.497,0.225,33.497,0.225
	s9.299,6.915,8.441,16.63c-0.876,9.731-17.508,22.267-18.815,31.355c-1.286,9.064-20.093,14.475-20.744-5.625
	c-0.644-20.102-12.109-22.908-12.109-22.908S99.778,325.476,114.772,325.487"/>
<path fill-rule="evenodd" clip-rule="evenodd" fill="#FFFFFF" d="M73.271,322.241c0,0,20.54,0,21.398,19.886
	c0.868,19.891,8.219,17.08,8.648,24.863c0.429,7.777-10.372,6.052-12.753,9.289c-2.379,3.247-9.943,6.92-9.943-3.237
	c0-10.156,2.593-34.59-4.328-39.123C69.38,329.376,73.271,322.241,73.271,322.241"/>
<path fill-rule="evenodd" clip-rule="evenodd" fill="#FFF200" d="M35.668,368.937c0,0-4.542,10.589-3.459,23.125
	c1.08,12.536,7.125,27.238,15.987,27.453c8.872,0.215,8.872-8.004,8.433-17.51C56.2,392.491,47.123,371.959,35.668,368.937
	 M100.509,382.975c0,0-16.212,1.737-27.882,17.735c-11.67,15.997-8.647,30.689-6.698,32.414c1.942,1.727,17.286-5.625,25.504-18.581
	C99.641,401.568,100.509,382.975,100.509,382.975z M98.345,426.213c0,0-22.911,12.75-26.587,28.953
	c-3.674,16.222-1.724,22.696,6.923,17.295C87.319,467.061,98.56,453.656,98.345,426.213z M22.264,415.839
	c0,0-2.593,8.423,0.868,21.176c3.452,12.751,19.664,34.149,27.657,31.77c8.004-2.379,2.818-23.766-3.237-31.985
	C41.498,428.592,29.402,415.402,22.264,415.839z M16.424,459.281c0,0-1.939,18.581,13.619,31.77
	c15.561,13.19,19.234,12.099,23.994,9.943c4.757-2.164-5.83-20.969-15.775-28.963C28.318,464.038,16.424,459.281,16.424,459.281z
	 M95.253,467.527c0,0-20.433,19.781-24.645,33.4c-4.21,13.609-0.641,23.981,3.569,24.303
	C78.397,525.563,103.035,497.681,95.253,467.527z M25.131,501.883c0,0-1.942,18.581,13.619,31.76
	c15.558,13.192,19.234,12.109,23.991,9.955c4.757-2.164-5.83-20.972-15.773-28.965C37.013,506.63,25.131,501.883,25.131,501.883z
	 M104.575,509.488c0,0-14.263,16.212-18.476,29.821c-4.21,13.619-0.641,24.001,3.569,24.323
	C93.881,563.954,112.364,539.641,104.575,509.488z M41.471,552.773c0,0,2.603,18.503,20.902,27.53
	c18.289,9.027,21.593,7.098,25.678,3.841c4.093-3.247-10.734-18.932-22.317-24.286C54.154,554.507,41.471,552.773,41.471,552.773z
	 M117.55,548.151c0,0-9.312,20.19-8.276,34.423c1.033,14.223,9.553,22.686,14.495,21.506
	C128.713,602.892,139.347,573.635,117.55,548.151z M59.34,597.431c0,0,8.071,17.947,29.217,21.71
	c21.143,3.764,23.914,0.829,27.101-3.656c3.187-4.482-16.417-15.997-29.694-18.004C72.674,595.462,59.34,597.431,59.34,597.431z
	 M85.29,636.242c0,0,12.089,16.719,34.608,16.095c22.521-0.614,24.743-4.21,27.063-9.496c2.321-5.274-20.248-12.945-34.316-12.194
	C98.568,631.388,85.29,636.242,85.29,636.242z M143.92,583.628c0,0-5.361,21.583-1.677,35.359
	c3.686,13.784,13.629,20.492,18.271,18.406C165.143,635.306,170.107,604.567,143.92,583.628z M63.98,331.114
	c0,0-9.729,12.966-9.292,30.475c0.429,17.509,6.045,28.524,11.018,28.739c4.972,0.215,10.382-11.67,9.728-28.954
	C74.791,344.079,63.98,331.114,63.98,331.114z"/>
<path fill-rule="evenodd" clip-rule="evenodd" fill="#FFFFFF" d="M414.917,380.969c0,0-16.201,11.677-58.997,11.026
	c-42.797-0.654-70.769,13.385-81.707,25.931c-29.499-24.313-57.381-27.882-86.558-26.906c-29.18,0.976-52.527-3.569-52.527-3.569
	s14.595,126.764,18.805,153.673c4.22,26.916,12.976,49.28,48.307,48.627c35.34-0.644,69.431,9.865,79.755,22.052
	c12.641-14.263,38.907-24.635,77.804-26.585c38.918-1.941,45.723-20.103,47.021-48.639
	C408.117,508.062,414.917,380.969,414.917,380.969 M132.866,403.021l-17.832-6.494c0,0,16.524,124.171,20.425,154.969
	c3.889,30.807,31.116,44.094,47.331,45.067c-20.425-12.643-28.204-25.94-32.417-45.39
	C146.153,531.724,132.866,403.021,132.866,403.021z M105.725,434.342l11.989,11.338c0,0-2.915,44.748,7.781,56.74
	c-5.83,10.694-17.178-2.915-18.475-26.916C105.725,451.52,105.725,434.342,105.725,434.342z M418.167,403.343l15.557-9.409
	c0,0-3.565,143.952-4.863,162.426c-1.298,18.483-23.67,39.882-46.356,34.366c19.781-11.018,28.522-15.883,30.464-50.578
	C414.917,505.459,418.167,403.343,418.167,403.343z"/>
<path fill="#231F20" d="M295.719,487.144h0.003v-0.003h-0.003V487.144z M250.768,486.188v-0.01V486.188z M306.967,492.662
	c-3.68,2.797-7.716,5.575-12.039,8.296c-0.497,5.253-1.199,10.245-2.073,14.877c3.256,1.218,6.355,2.194,9.27,2.925
	c9.328,2.329,16.153,2.194,18.221-0.976c2.083-3.177-0.497-9.486-6.36-17.128C311.998,498.062,309.642,495.389,306.967,492.662z
	 M276.749,459.866c2.942-1.345,5.831-2.553,8.658-3.646c-0.633-3.666-1.398-7.048-2.267-10.1c-2.56-8.987-5.658-14.585-8.683-14.662
	c-3.042-0.058-6.387,5.391-9.349,14.263c-0.751,2.271-1.463,4.737-2.096,7.379C267.447,454.991,272.069,457.262,276.749,459.866z
	 M240.57,481.703c3.314-2.623,6.951-5.246,10.852-7.819c0.467-5.518,1.168-10.761,2.067-15.636c-2.73-0.976-5.353-1.774-7.829-2.398
	c-9.329-2.321-16.154-2.184-18.231,0.984c-2.077,3.169,0.507,9.486,6.366,17.128C235.724,476.467,237.988,479.06,240.57,481.703z
	 M253.234,520.229c-2.661,0.771-5.206,1.395-7.624,1.882c-12.439,2.495-21.905,1.103-25.609-4.747
	c-0.225-0.312-0.419-0.644-0.556-1.003c-3.012-6.249,0.839-15.024,9.574-24.256c1.58-1.657,3.314-3.344,5.206-5.059
	c-2.653-2.74-4.992-5.441-7.01-8.064c-8.071-10.52-10.936-20.248-6.716-26.692c4.23-6.444,14.31-7.691,27.171-4.474
	c2.416,0.604,4.952,1.365,7.585,2.271c0.614-2.465,1.295-4.797,2.016-6.96c4.153-12.459,10.257-20.093,17.353-19.936
	c7.116,0.154,12.889,8.041,16.496,20.667c0.838,2.905,1.57,6.112,2.204,9.553c3.8-1.228,7.428-2.184,10.793-2.857
	c12.788-2.573,22.44-1.023,25.91,5.256c3.47,6.279-0.34,15.276-9.317,24.752c-2.125,2.251-4.564,4.552-7.265,6.883
	c2.69,2.777,5.077,5.528,7.129,8.178c8.061,10.52,10.935,20.258,6.705,26.691c-4.219,6.454-14.29,7.692-27.161,4.475
	c-2.874-0.711-5.91-1.647-9.076-2.797c-0.565,2.193-1.167,4.26-1.811,6.202c-4.156,12.448-10.275,20.083-17.364,19.925
	c-7.108-0.154-12.898-8.043-16.494-20.657C254.559,526.636,253.838,523.546,253.234,520.229z M269.953,514.147
	c-2.993,1.288-5.927,2.456-8.773,3.489c0.614,3.452,1.335,6.658,2.164,9.556c2.563,8.997,5.663,14.593,8.685,14.662
	c3.042,0.068,6.395-5.393,9.342-14.253c0.701-2.086,1.345-4.33,1.937-6.718C278.984,518.964,274.497,516.72,269.953,514.147z
	 M259.99,509.273l1.18-0.45l-0.819-0.527l-0.187-0.117h-0.007h0.007l-0.319-0.215L259.99,509.273z M240.192,492.816
	c-1.892,1.687-3.629,3.354-5.169,4.992c-6.414,6.766-9.611,12.324-8.091,15.062v0.01c1.53,2.73,7.936,2.965,17.061,1.131
	c2.506-0.507,5.176-1.178,7.974-2.016c-0.389-3.267-0.701-6.679-0.916-10.228C247.132,498.821,243.505,495.819,240.192,492.816z
	 M250.815,484.336c-1.452,1.033-2.855,2.086-4.2,3.13c1.315,1.168,2.681,2.338,4.103,3.509c0-1.472,0.011-2.945,0.04-4.437
	c0-0.097-0.01-0.185-0.01-0.272v-0.01h0.01l0.01-0.067v-0.02C250.778,485.554,250.798,484.94,250.815,484.336z M286.569,464.632
	l-1.073,0.44l1.193,0.761L286.569,464.632z M307.46,481.673c2.717-2.311,5.145-4.602,7.25-6.814
	c6.407-6.765,9.605-12.324,8.082-15.061c-1.508-2.74-7.925-2.975-17.059-1.141c-3.444,0.701-7.203,1.715-11.17,3.03
	c0.387,3.267,0.691,6.679,0.895,10.208C299.802,475.094,303.822,478.389,307.46,481.673z M295.614,490.652
	c1.822-1.248,3.586-2.495,5.271-3.753c-1.628-1.433-3.334-2.875-5.119-4.311c0,1.386-0.005,2.781-0.037,4.193
	c0.01,0.087,0.01,0.185,0.01,0.282h-0.021v0.08C295.703,488.321,295.661,489.492,295.614,490.652z M267.574,464.37
	c-2.114-1.073-4.201-2.067-6.259-2.975c-0.38,2.253-0.721,4.582-1.023,6.99c1.093-0.624,2.184-1.248,3.297-1.861l0.115-0.068v-0.01
	v0.01l0.117-0.07l0.01-0.01C265.079,465.696,266.326,465.021,267.574,464.37z M279.293,509.779c1.942,0.993,3.868,1.929,5.763,2.808
	c0.361-2.046,0.68-4.173,0.963-6.356l-0.047,0.04l-0.01-0.01l-0.126,0.067l-0.021,0.01v-0.01
	C283.632,507.538,281.46,508.686,279.293,509.779z M259.024,486.704c-0.077,3.656-0.038,7.242,0.1,10.704
	c1.812,1.296,3.683,2.583,5.615,3.851l0.018,0.01l0.01,0.01v-0.01v0.01l0.117,0.077c1.862,1.218,3.734,2.398,5.596,3.509
	c3.733-1.724,7.536-3.656,11.379-5.78l-0.01-0.01l0.01-0.01c0.126-0.068,0.251-0.137,0.387-0.195c1.623-0.906,3.23-1.834,4.789-2.76
	c0.204-2.943,0.351-5.965,0.419-9.047h-0.021c0-0.154,0.01-0.302,0.031-0.447c0.068-3.529,0.037-6.971-0.079-10.325
	c-1.413-0.986-2.858-1.969-4.339-2.935l-0.021-0.02h-0.005l-0.11-0.077c-2.193-1.433-4.386-2.788-6.559-4.076
	c-2.78,1.345-5.588,2.798-8.405,4.358v0.01c-0.117,0.07-0.234,0.127-0.352,0.187c-2.855,1.588-5.606,3.207-8.238,4.864
	c-0.154,2.496-0.262,5.049-0.322,7.652h0.01v0.01C259.044,486.412,259.044,486.557,259.024,486.704z"/>
<path fill-rule="evenodd" clip-rule="evenodd" fill="#FFFFFF" d="M210.991,387.285h16.165c0,0,12.673-18.989,46.667-18.989
	c33.981,0,45.586,18.208,45.586,18.208h16.242c0,0-16.436-28.465-62.493-28.465C227.107,358.039,210.991,387.285,210.991,387.285
	 M181.16,387.772h17.675c0,0,24.957-43.604,75.223-43.604c50.246,0,76.507,42.151,76.507,42.151h14.908
	c0,0-24.314-53.499-92.391-53.499C204.997,332.82,181.16,387.772,181.16,387.772z"/>
<path fill="#FFFFFF" d="M514.962,231.691l-33.265-0.926l0.183-6.517l22.681-13.065l-22.299-0.628l0.178-6.219l33.259,0.926
	l-0.183,6.731l-22.246,12.866l21.869,0.602L514.962,231.691 M477.976,256.581l-6.564-4.952l0.157-5.868l6.826-4.512l-0.147,5.104
	l-3.46,2.539l3.324,2.533L477.976,256.581z M514.114,262.674l-33.265-0.906l0.675-24.612l5.622,0.141l-0.487,17.891l7.381,0.204
	l0.461-16.63l5.611,0.147l-0.445,16.64l9.008,0.241l0.508-18.54l5.622,0.157L514.114,262.674z M513.764,275.828l-33.265-0.9
	l0.178-6.747l33.26,0.9L513.764,275.828z M512.874,309.139l-33.27-0.89l0.183-6.737l13.102,0.351l0.351-13.102l-13.102-0.351
	l0.178-6.737l33.265,0.89l-0.178,6.737l-14.547-0.393l-0.34,13.102l14.536,0.393L512.874,309.139z M512.01,342.687l-33.265-0.858
	l0.167-6.522l22.644-13.102l-22.293-0.586l0.162-6.224l33.265,0.858l-0.173,6.726l-22.22,12.908l21.864,0.565L512.01,342.687z
	 M520.082,384.243l-6.37-0.164l0.157-6.367l6.365,0.164L520.082,384.243z M478.17,364.514l0.147-6.36l4.564,0.11
	c1.879,0.047,3.334,0.241,4.387,0.591c1.052,0.351,1.984,0.979,2.795,1.853c1.298,1.424,2.125,3.591,2.497,6.483l3.031,0.077
	c3.921,0.097,6.747,0.342,8.464,0.751c1.617,0.389,2.989,1.093,4.13,2.106c2.429,2.204,3.591,5.663,3.476,10.392
	c-0.131,5.263-1.544,8.919-4.245,10.996c-1.199,0.926-2.424,1.522-3.732,1.794c-1.9,0.389-4.716,0.546-8.464,0.449l-17.76-0.439
	l0.168-6.736l18.022,0.446c2.889,0.07,4.748,0.03,5.569-0.117c3.031-0.544,4.591-2.651,4.68-6.337
	c0.089-3.546-1.209-5.585-3.889-6.112c-1.141-0.225-3.026-0.37-5.658-0.439l-18.404-0.447l0.167-6.746l11.845,0.292
	c-0.361-2.192-1.115-3.741-2.266-4.631c-0.681-0.529-1.712-0.827-3.078-0.885l-0.079,3.057L478.17,364.514z M510.225,415.04
	l-27.648-0.654l-0.236,9.848l-5.617-0.127l0.628-26.39l5.622,0.125l-0.236,9.808l27.648,0.654L510.225,415.04z M497.218,447.434
	l2.136-6.461c3.648,1.08,6.328,2.808,8.061,5.166c1.727,2.358,2.544,5.323,2.471,8.89c-0.099,4.427-1.68,8.023-4.769,10.804
	c-3.083,2.788-7.244,4.113-12.489,4.005c-5.538-0.127-9.809-1.647-12.809-4.572c-3.005-2.925-4.454-6.726-4.36-11.386
	c0.089-4.075,1.377-7.352,3.832-9.838c1.46-1.492,3.528-2.573,6.219-3.274l1.434,6.676c-1.727,0.352-3.109,1.15-4.135,2.381
	c-1.021,1.227-1.549,2.728-1.586,4.512c-0.058,2.466,0.78,4.495,2.518,6.075c1.733,1.58,4.58,2.408,8.558,2.496
	c4.193,0.087,7.203-0.604,9.014-2.077c1.827-1.482,2.764-3.422,2.811-5.86c0.037-1.784-0.497-3.334-1.607-4.639
	C501.4,449.014,499.646,448.051,497.218,447.434z M517.663,493.957l-6.37-0.117l0.131-6.367l6.355,0.117L517.663,493.957z
	 M491.79,499.29c3.774,0.068,6.648-0.751,8.626-2.458c1.979-1.705,2.994-3.899,3.041-6.579c0.047-2.69-0.869-4.904-2.769-6.669
	c-1.9-1.755-4.784-2.671-8.647-2.74c-3.821-0.077-6.684,0.701-8.6,2.361c-1.905,1.637-2.884,3.841-2.942,6.618
	c-0.047,2.768,0.869,5.029,2.727,6.756C485.1,498.314,487.947,499.213,491.79,499.29z M491.884,506.22
	c-3.392-0.067-6.239-0.634-8.516-1.687c-1.691-0.778-3.198-1.851-4.517-3.177c-1.324-1.345-2.293-2.788-2.921-4.358
	c-0.838-2.096-1.241-4.495-1.183-7.205c0.089-4.914,1.691-8.802,4.789-11.697c3.099-2.887,7.36-4.28,12.798-4.173
	c5.381,0.097,9.563,1.637,12.547,4.61c2.994,2.975,4.439,6.923,4.339,11.807c-0.089,4.952-1.675,8.862-4.758,11.728
	C501.389,504.925,497.197,506.318,491.884,506.22z M507.901,538.685l-33.27-0.419l0.089-6.736l13.102,0.164l0.168-13.102
	l-13.102-0.165l0.073-6.736l33.286,0.419l-0.089,6.736l-14.546-0.177l-0.167,13.095l14.546,0.185L507.901,538.685z M492.433,561.146
	l-13.154,0.362l10.186,8.266L492.433,561.146z M508.927,553.814l-2.361,6.855l-8.108,0.252l-4.35,12.615l6.26,5.079l-2.319,6.736
	l-27.25-23.056l2.329-6.736L508.927,553.814z M468.392,597.918c3.062,2.204,5.889,3.159,8.49,2.887
	c2.602-0.284,4.69-1.512,6.25-3.686c1.57-2.184,2.068-4.532,1.513-7.068c-0.576-2.526-2.418-4.914-5.559-7.165
	c-3.099-2.234-5.91-3.217-8.412-2.945c-2.497,0.254-4.564,1.512-6.182,3.773c-1.617,2.251-2.157,4.622-1.596,7.118
	C463.45,593.319,465.272,595.677,468.392,597.918z M464.529,603.671c-2.758-1.979-4.774-4.056-6.051-6.229
	c-0.947-1.6-1.57-3.334-1.9-5.186c-0.335-1.852-0.314-3.599,0.068-5.246c0.497-2.193,1.539-4.395,3.13-6.599
	c2.863-3.988,6.386-6.279,10.584-6.893c4.193-0.614,8.49,0.674,12.898,3.841c4.376,3.14,6.93,6.786,7.695,10.929
	c0.769,4.152-0.272,8.208-3.13,12.176c-2.895,4.026-6.417,6.347-10.579,6.941C473.082,608.018,468.842,606.77,464.529,603.671z
	 M455.824,636.729l-24.078-22.968l4.648-4.874l9.49,9.037l9.045-9.476l-9.485-9.047l4.648-4.874l24.078,22.958l-4.648,4.884
	l-10.532-10.04l-9.045,9.486l10.532,10.04L455.824,636.729z M427.495,658.654l-19.645-26.849l5.439-3.976l8.705,11.892l2.256-19.916
	l7.291-5.333l-2.486,17.869l22.649,8.6l-7.004,5.137l-16.619-7.203l-1.084,7.682l5.946,8.121L427.495,658.654z M400.716,660.935
	l6.726-1.003c0.68,3.734,0.351,6.903-0.984,9.516c-1.33,2.6-3.601,4.68-6.826,6.21c-3.983,1.909-7.914,2.114-11.793,0.613
	c-3.863-1.492-6.925-4.602-9.186-9.339c-2.397-4.992-2.952-9.496-1.696-13.494c1.246-4.005,3.989-7.008,8.192-9.017
	c3.68-1.765,7.182-2.096,10.516-1.023c1.979,0.634,3.889,1.989,5.721,4.076l-5.313,4.29c-1.099-1.375-2.424-2.254-3.983-2.623
	c-1.56-0.362-3.141-0.147-4.758,0.614c-2.225,1.073-3.659,2.73-4.271,4.991c-0.633,2.261-0.089,5.176,1.617,8.755
	c1.816,3.791,3.795,6.169,5.925,7.115c2.141,0.966,4.303,0.916,6.485-0.127c1.617-0.768,2.759-1.939,3.434-3.529
	C401.192,665.382,401.26,663.373,400.716,660.935z M366.713,698.575l-2.167-5.985l5.988-2.164l2.162,5.984L366.713,698.575z
	 M352.486,676.318c1.288,3.549,3.083,5.937,5.381,7.185c2.303,1.23,4.721,1.395,7.234,0.489c2.539-0.918,4.271-2.575,5.234-4.981
	c0.968-2.398,0.79-5.421-0.534-9.047c-1.288-3.599-3.041-5.987-5.266-7.185c-2.214-1.2-4.622-1.327-7.234-0.382
	c-2.612,0.946-4.386,2.603-5.339,4.964C351.005,669.729,351.183,672.712,352.486,676.318z M346.053,678.883
	c-1.152-3.189-1.638-6.044-1.471-8.56c0.126-1.852,0.586-3.636,1.356-5.351c0.78-1.717,1.785-3.14,3.02-4.29
	c1.659-1.529,3.764-2.76,6.307-3.676c4.622-1.667,8.825-1.57,12.636,0.292c3.811,1.872,6.627,5.353,8.469,10.462
	c1.832,5.059,1.895,9.523,0.178,13.365c-1.717,3.861-4.878,6.621-9.479,8.278c-4.648,1.684-8.867,1.607-12.652-0.254
	C350.654,687.297,347.854,683.885,346.053,678.883z M319.928,700.242l-6.281-32.676l6.622-1.268l2.465,12.868l12.866-2.476
	l-2.476-12.868l6.632-1.278l6.276,32.679l-6.616,1.275l-2.743-14.281l-12.877,2.466l2.748,14.283L319.928,700.242z M293.918,702.026
	l-0.832-33.263l6.726-0.175l0.843,33.273L293.918,702.026z M270.315,710.919l0.195-6.367l6.355,0.195l-0.194,6.367L270.315,710.919z
	 M278.66,688.857l-4.242-12.458l-4.864,12.176L278.66,688.857z M290.563,702.426l-7.255-0.222l-2.643-7.664l-13.333-0.409
	l-2.995,7.487l-7.125-0.215l13.931-32.863l7.124,0.215L290.563,702.426z M237.967,670.089l-1.258,8.795l7.038,1.003l-0.604,4.193
	l-7.028-1.013l-1.268,8.833l4.971,0.711c2.204,0.322,3.803,0.369,4.837,0.144c1.345-0.262,2.436-0.946,3.285-2.046
	c1.19-1.56,2.019-4.076,2.526-7.545c0.349-2.468,0.429-4.407,0.225-5.802c-0.205-1.392-0.634-2.563-1.288-3.499
	c-0.654-0.936-1.57-1.647-2.768-2.163c-0.918-0.372-2.808-0.762-5.665-1.17L237.967,670.089z M232.098,663.568l12.129,1.745
	c2.788,0.399,4.854,0.916,6.239,1.56c1.862,0.858,3.371,2.126,4.542,3.803c1.171,1.667,1.949,3.606,2.341,5.81
	c0.399,2.184,0.369,4.825-0.07,7.917c-0.389,2.71-1.121,5.099-2.214,7.165c-1.07,2.077-2.476,3.734-4.18,4.961
	c-1.308,0.936-2.975,1.57-5.021,1.922c-1.52,0.252-3.529,0.205-6.005-0.148l-12.488-1.794l2.067-14.398l-3.402-0.489l0.604-4.19
	l3.402,0.496L232.098,663.568z"/>
</svg>
