<svg xmlns="http://www.w3.org/2000/svg" viewBox="0 0 350 200"><g fill="none" stroke-width="2"><path stroke="#e988a2" d="M85.85 78.87c6.42-.27 12.97.41 19.38.13a1.31 1.27-68.1 0 0 .86-.38c20.69-20.92 47.06-35.19 74.59-44.96q24.21-8.58 44.76-12.23 8.37-1.48-.13-1.43c-49.82.31-108.14 16.5-139.91 58.02q-.69.9.45.85" vector-effect="non-scaling-stroke"/><path stroke="#80a9c4" d="M204.03 92.77a3.99 3.99 0 0 0-3.99-3.99 3.99 3.99 0 0 0-3.99 3.99 3.99 3.99 0 0 0 3.99 3.99 3.99 3.99 0 0 0 3.99-3.99M80.04 91q-.43.78-1.25.25" vector-effect="non-scaling-stroke"/><path stroke="#8097b8" d="M78.79 91.25q-2.07-2.16-5.55-2.44-12.24-1-12.98 9.65c-1 14.45 22.34 9.84 18.76 20.29-1.98 5.78-11.6 4.55-12.43-1.5q-.2-1.5-.38-3.02a.54.53 87 0 0-.53-.48h-5.13a.45.45 0 0 0-.45.45l.02 11.9a.55.53 6.9 0 0 .42.52c.7.15 4.74.37 5.18-.16a.84.83 58.7 0 0 .18-.76l-.4-1.61q-.3-1.19.57-.32c9.08 9.13 24.58.45 19.23-12.73q-1.06-2.59-3.64-3.68l-12.21-5.12q-1.89-.8-2.19-2.82c-1.25-8.75 11.66-8.04 12.05-.79q.06 1.19.21 2.39a.55.54 86.4 0 0 .54.48H85a.5.5 0 0 0 .5-.5V89.88a.63.63 0 0 0-.63-.63H80.5a.66.66 0 0 0-.66.62q-.04.6.2 1.13" vector-effect="non-scaling-stroke"/><path stroke="#00407d" d="M78.79 91.25q-.43.79-1.18.35c-4.82-2.84-11.94-2.98-15.05 2.31-2.1 3.59-1.75 10.65 2.5 12.82 3.27 1.68 11.58 3.16 14.57 7.64q1.45 2.16.41 4.55c-3.23 7.39-14.76 6.25-14.33-3.48a.86.86 0 0 0-.5-.81q-2.18-1-4.03.53a1 1 0 0 0-.35.84l.57 8.59a.62.61-83.9 0 0 .44.55q2.26.72 2.76-1.29a.91.89 89.5 0 1 .62-.64l1.73-.5a.56.55-22.5 0 1 .62.25c2.14 3.71 7.3 3.7 10.97 2.75 6-1.54 8.15-8.01 6.02-13.51-3.17-8.19-22.62-5.64-17.43-17.4q1.22-2.77 4.24-2.9 8.17-.34 9.35 7.82a.67.65 83.5 0 0 .7.57l2.55-.18a.59.59 0 0 0 .55-.62l-.34-8.28a.69.68 3.6 0 0-.58-.65q-1.9-.31-3.56.44" vector-effect="non-scaling-stroke"/><path stroke="#80a9c4" d="m147.25 127.21 13.73-.21a.53.53 0 0 0 .52-.53v-4.04a.54.54 0 0 0-.58-.54l-7.14.55a.38.37 4.4 0 1-.4-.46q.07-.29.41-.48" vector-effect="non-scaling-stroke"/><path stroke="#8097b8" d="M153.79 121.5c10.48-8.78 6.5-30-7.78-32.46-16.62-2.86-24.4 11.4-20.56 25.77q2.32 8.68 10.33 11.6c3.43 1.25 7.68.88 11.47.8" vector-effect="non-scaling-stroke"/><path stroke="#00407d" d="M153.79 121.5q-.18-1.65 1.13-2.53.41-.28.65-.7 5.18-9 1.4-18.93c-3.6-9.47-16.41-12.33-24.42-6.92-7.23 4.88-7.99 16.36-5.35 23.88 3.08 8.79 11 10.3 19.46 9.93a.61.6 83 0 1 .63.5q.04.23-.04.48" vector-effect="non-scaling-stroke"/><path stroke="#8097b8" d="m46.25 126.71 5.61-.09a.56.56 0 0 0 .55-.58l-.11-3.99" vector-effect="non-scaling-stroke"/><path stroke="#80a9c4" d="m52.3 122.05-3.86-.36a.51.51 0 0 1-.47-.51l.04-26.81a.62.62 0 0 1 .62-.62H52a.5.5 0 0 0 .5-.5v-3.5a.5.5 0 0 0-.5-.5H36.5a.5.5 0 0 0-.5.5v3.5a.5.5 0 0 0 .5.5h3.75a.5.5 0 0 1 .5.5v26.97a.5.49 88.8 0 1-.47.5l-3.77.18a.53.53 0 0 0-.51.53v3.71a.53.53 0 0 0 .53.53l9.72.04" vector-effect="non-scaling-stroke"/><path stroke="#00407d" d="m52.3 122.05-1.42 3.01a.77.76-77 0 1-.69.44h-3.7a.52.51 89.4 0 0-.51.53q.01.38.27.68" vector-effect="non-scaling-stroke"/><path stroke="#80a9c4" d="M110.44 121.85a.48.48 0 0 1-.46-.48l.14-26.9a.48.48 0 0 1 .48-.48l4.92.01a.48.48 0 0 1 .48.48v7.05a.48.48 0 0 0 .48.48l5-.03a.48.48 0 0 0 .48-.47l.28-11.77a.48.48 0 0 0-.48-.49H91.48a.48.48 0 0 0-.48.48v11.79a.48.48 0 0 0 .48.48h5.04a.48.48 0 0 0 .48-.48v-6.98a.48.48 0 0 1 .48-.48l4.82-.06a.48.48 0 0 1 .48.48l.27 26.73a.48.48 0 0 1-.45.48l-4.41.35a.48.48 0 0 0-.44.47v3.76a.48.48 0 0 0 .48.48h16.54a.48.48 0 0 0 .48-.48v-3.74a.48.48 0 0 0-.46-.48l-4.35-.2" vector-effect="non-scaling-stroke"/><path stroke="#8097b8" d="M169.54 94.25q-.43 13.59.44 27.3" vector-effect="non-scaling-stroke"/><path stroke="#80a9c4" d="m169.98 121.55-2.48.49" vector-effect="non-scaling-stroke"/><path stroke="#8097b8" d="M167.5 122.04q-.76-.27-1.58-.17a.66.66 0 0 0-.58.64l-.06 3.63a.52.52 0 0 0 .51.52q17.33.51 21.63-.22c10.19-1.73 12.62-15.01 2.62-18.69" vector-effect="non-scaling-stroke"/><path stroke="#80a9c4" d="m190.04 107.75-.54-.52a.31.31 0 0 1 0-.46l.25-.23" vector-effect="non-scaling-stroke"/><path stroke="#8097b8" d="M189.75 106.54c8.2-2.51 7.52-13.85 0-16.58" vector-effect="non-scaling-stroke"/><path stroke="#80a9c4" d="M189.75 89.96c-6.31-1.88-17.04-.72-23.86-.69a.64.63 0 0 0-.64.63v3.3a.54.53 85.4 0 0 .62.53q2-.32 3.67.52" vector-effect="non-scaling-stroke"/><path stroke="#00407d" d="M189.75 89.96q-.53.05-.67.35a.51.51 0 0 0 .29.69c5.14 1.91 6.64 9.38 3 13.3a1.73 1.67 12.9 0 1-.81.49q-1.45.37-1.81 1.75m.29 1.21-.19.28a.41.41 0 0 0 .18.6c9.05 4.12 6.39 16.22-3.21 16.68q-9.62.45-19.31-.02a.59.59 0 0 1-.56-.53q-.17-1.48.55-2.72" vector-effect="non-scaling-stroke"/><path stroke="#00407d" d="M169.98 121.55q.99-13.41.88-26.85a.58.57 2.8 0 0-.52-.57q-.45-.04-.8.12" vector-effect="non-scaling-stroke"/><path stroke="#8097b8" d="M185.532 135.072a.5.5 0 0 0-.5-.501l-1.02-.002a.5.5 0 0 0-.5.5l-.024 13.66a.5.5 0 0 0 .5.5l1.02.002a.5.5 0 0 0 .5-.5l.024-13.66m32.358 3.359-.01-1.4a.68.67-86.3 0 1 .76-.67q1.48.17 1.86-1.13a.44.44 0 0 0-.33-.56c-4.04-.9-4.64.92-4.26 4.11a.42.42 0 0 1-.5.46q-.77-.16-1.25.49a.62.62 0 0 0 .23.92l1.01.49a.62.62 0 0 1 .35.56v6.97a.6.59-3.4 0 0 .67.59l1.08-.13a.57.56-3.4 0 0 .5-.56v-6.95a.62.62 0 0 1 .63-.62h.52a.65.65 0 0 0 .66-.65V140a.7.7 0 0 0-.57-.69l-.75-.16a.75.73 5.8 0 1-.6-.72m-70.12-1.07a1.23 1.23 0 0 0 1.24-1.26l-.01-.36a.76.76 0 0 0-.76-.74l-.62-.01a.75.74 11.2 0 0-.69.46q-.81 1.9.84 1.91" vector-effect="non-scaling-stroke"/><path stroke="#e988a2" d="M61.27 135.38a.45.44 6.1 0 0-.45.36q-4.09 20.08-4.4 40.58a.12.11 12.6 0 0 .07.1l.25.08a.18.18 0 0 0 .23-.14q2.77-20.85 11.25-40.07a.55.55 0 0 0-.49-.77l-6.46-.14" vector-effect="non-scaling-stroke"/><path stroke="#8097b8" d="M80.52 136.112a.6.6 0 0 0-.598-.601l-1.06-.002a.6.6 0 0 0-.601.599l-.022 12.54a.6.6 0 0 0 .599.601l1.06.002a.6.6 0 0 0 .601-.599l.022-12.54M196.57 147.33l-1.77-.42a.49.48-79 0 0-.59.4c-.8 5.13 15.76-.72 2.56-6.96a.75.74 17.3 0 1-.42-.79l.25-1.51a.74.73-83.2 0 1 .78-.62l2.95.25a.62.62 0 0 0 .66-.48q.11-.48.01-.84-.59-2.1-2.66-1.4-5.14 1.73-4.11 5.3c.59 2.07 7.81 4.91 3.98 6.88a2.39 2.35-51.1 0 1-1.64.19m-99.31-8.72.27-1.39q.19-.98-.75-.65l-1.45.5a.74.73-23.2 0 0-.41 1.02l.36.72q.48.96-.51.55-1.02-.42-1.55.34a.66.66 0 0 0 .3 1l1.09.43a.59.58-78.6 0 1 .37.56c-.06 2.42-.92 9.2 3.97 7.31q1.22-.47.1-1.14l-1.32-.8a.98.98 0 0 1-.48-.86v-4.74a.47.47 0 0 1 .55-.46q1.09.19 1.6-.77a.55.55 0 0 0-.38-.8l-1.39-.26a.47.47 0 0 1-.37-.56" vector-effect="non-scaling-stroke"/><path stroke="#80a9c4" d="m140.21 139-.25.25" vector-effect="non-scaling-stroke"/><path stroke="#8097b8" d="M139.96 139.25q-.92-.12-1.59.29-1.15.71.15 1.09l1.38.41a.47.47 0 0 1 .34.45l.03 5.7a2.02 2 12.5 0 0 1.16 1.8q2.09.96 2.95-.63a.58.58 0 0 0-.43-.85l-1.22-.17a.56.56 0 0 1-.48-.55v-5.2a.57.56 82.8 0 1 .42-.55l1.22-.34a.7.69-3.8 0 0 .51-.58c.14-1.03-1.47-1.05-2.15-.58" vector-effect="non-scaling-stroke"/><path stroke="#80a9c4" d="m142.25 139.54-.29-.29" vector-effect="non-scaling-stroke"/><path stroke="#8097b8" d="M141.96 139.25q.5-1.09.33-2.2a.55.54 81.9 0 0-.61-.46q-1.83.22-1.47 2.41" vector-effect="non-scaling-stroke"/><path stroke="#00407d" d="m141.96 139.25-.5.39a.54.54 0 0 1-.73-.07l-.52-.57" vector-effect="non-scaling-stroke"/><path stroke="#00407d" d="M142.25 139.54q-.21 1.12-1.12 1.04a.94.93-10.3 0 1-.75-.51l-.42-.82" vector-effect="non-scaling-stroke"/><path stroke="#8097b8" d="M225.39 141.01q1.03.11 1.77-.53 1.05-.91-.33-1.08l-1.54-.18a.42.42 0 0 1-.36-.5l.3-1.49a.55.55 0 0 0-.52-.65q-2.1-.09-1.98 1.69a.88.88 0 0 1-.38.78l-1 .7q-.86.6.11.99l.96.38a.76.76 0 0 1 .47.77c-.25 2.48-1.12 9.57 4.28 6.92q1.84-.9-.17-1.31l-1.58-.32a.53.52-84.8 0 1-.42-.52v-5.3a.35.35 0 0 1 .39-.35m-139.91-.64q-.25-1.45-1.55-1.09a.58.58 0 0 0-.41.64q.52 3.81.04 7.71c-.15 1.15.26 1.83 1.49 1.67a.65.63-1.7 0 0 .56-.58c.15-1.66-.85-9.21 2.89-7.45a.98.95 8.5 0 1 .55.72c.29 1.71-.97 8.15 1.92 7.24a.81.81 0 0 0 .57-.79l-.12-6.58q-.04-2.15-2.15-2.57-2.08-.41-3.17 1.21-.47.71-.62-.13m22.56 6.92c-1.62.16-4.69.81-4.68-1.91a.64.63 0 0 1 .64-.63h4.51a.58.57-87.2 0 0 .57-.52c.33-3.66-3.04-6.44-6.3-4.17q-2.01 1.4-1.82 3.84c.5 6.35 7.89 6.37 7.66 3.86a.53.52-5.4 0 0-.58-.47m5.55-6.85q-.35-.18-.37-.64a.57.57 0 0 0-.57-.55h-.71a.55.55 0 0 0-.55.56l.16 8.84a.61.61 0 0 0 .61.6h.97a.63.62 90 0 0 .62-.63v-5.89a.94.94 0 0 1 .52-.84l1.82-.89a.71.7 76.2 0 0 .4-.67l-.02-.42a.72.72 0 0 0-.75-.69q-.97.03-1.46 1a.5.49 26.6 0 1-.67.22m7.03-.35q-.11-.86-.96-.87a1.12 1.12 0 0 0-1.15 1.12l-.02 8.32a.62.61-2.6 0 0 .67.61l1.23-.12a.69.69 0 0 0 .63-.7c-.04-1.84-.92-7.33 1.86-7.46a1.04 1.04 0 0 1 1.1 1.03l.03 6.6a.54.54 0 0 0 .55.54h1.22a.63.63 0 0 0 .63-.68c-.22-2.72 1.17-9.94-3.57-9.23a1.55 1.55 0 0 0-.89.44l-.65.64q-.58.57-.68-.24m13.44-.65q-3.92-1.24-4.5.37l-.29.79q-.29.8.54.65c1.34-.25 4.49-1.32 4.59 1.13a.49.48-5.2 0 1-.42.5l-3.43.52q-2.19.33-2.07 2.54c.2 3.57 2.65 3.9 5.26 2.5a.69.68 45.4 0 1 .68.01l1.28.77q.81.49.74-.46c-.21-2.76.86-8.3-2.38-9.32" vector-effect="non-scaling-stroke"/><path stroke="#808592" d="M155.809 149.32a5.12 4.28 90.8 0 0 4.35-5.06 5.12 4.28 90.8 0 0-4.207-5.18 5.12 4.28 90.8 0 0-4.352 5.06 5.12 4.28 90.8 0 0 4.209 5.18" vector-effect="non-scaling-stroke"/><path stroke="#8097b8" d="M165.09 140.38q-.35-.02-.4-.56a.65.65 0 0 0-.68-.59l-.85.05a.6.6 0 0 0-.57.61l.22 8.79a.6.59 87.6 0 0 .62.58l1.16-.06a.6.6 0 0 0 .56-.67c-.18-1.66-1.13-7.82 1.94-7.48a.86.86 0 0 1 .74.62q.9 3.25.12 6.58a.69.69 0 0 0 .57.83l1.29.2a.61.61 0 0 0 .7-.6l-.02-6.64q0-1.71-1.55-2.43-2.19-1.02-3.16.43a.78.77-70.8 0 1-.69.34m12.91.79.29 1.28a.46.45-4.6 0 1-.48.56q-2.32-.18-4.28 1.01-2.04 1.24-.89 3.33 1.69 3.06 4.83 1.29a.96.95 42.6 0 1 .84-.03l1.43.64a.54.53 10.7 0 0 .76-.51l-.31-7.3a1.31 1.3 20.1 0 0-.43-.92q-2.64-2.41-6.33-.63-1.48.71.11 1.12 1.58.41 3.11-.44a.93.92-20.8 0 1 1.35.6m30.273 8.12a5.09 4.41 89.4 0 0 4.357-5.136 5.09 4.41 89.4 0 0-4.463-5.044 5.09 4.41 89.4 0 0-4.357 5.136 5.09 4.41 89.4 0 0 4.463 5.044m29.507-3.32-1.03-6a.76.76 0 0 0-.7-.63l-1.59-.11a.61.61 0 0 0-.63.49c-.42 2.14-1.24 6.65-1.65 6.75a.43.42 78.3 0 1-.51-.34l-1.01-6.04a.75.75 0 0 0-.64-.61l-1.15-.13a.51.51 0 0 0-.55.65l2.31 8.38a.93.93 0 0 0 .83.69l1.19.1a.67.67 0 0 0 .71-.53l1.37-6.68q.31-1.47.64 0l1.42 6.28a.87.87 0 0 0 .73.66l1.15.17a.78.77 11.6 0 0 .85-.56l2.41-8.56a.52.52 0 0 0-.51-.67l-.94.02a.73.73 0 0 0-.71.62c-.18 1.35-1.02 6.29-1.49 6.38a.42.41-10.7 0 1-.5-.33m10.65-2.97q-2.32-.14-4.24 1.14-2.14 1.42-.62 3.5 2.07 2.8 4.77.7a.62.62 0 0 1 .93.2q.58 1.1 1.67.59a.76.76 0 0 0 .44-.75c-.21-2.5.52-6.46-1.2-8.19-1.03-1.04-5.7-1.87-5.96.53a.49.49 0 0 0 .58.53c1.15-.22 4.36-1.12 4.21 1.24a.54.54 0 0 1-.58.51m7.47-3.02c-.34-.71-.79-.96-1.57-.65a.66.66 0 0 0-.42.63l.04 8.61a.6.59-88.4 0 0 .55.59l1.28.1a.53.53 0 0 0 .58-.54l-.12-4.28q-.05-1.95 1.67-2.87 1.54-.82.98-2.09a.55.55 0 0 0-.82-.23l-1.36.94a.56.55-30.2 0 1-.81-.21m7.37 4.81 4.71-.02a.71.7-86.8 0 0 .7-.63c.54-4.85-5.55-7.22-7.57-2.08-1.82 4.64 2.01 8.91 6.68 6.64a.82.82 0 0 0 .46-.72l.01-.33a.48.48 0 0 0-.59-.48c-1.82.41-4.47.7-4.83-1.88a.44.43 86 0 1 .43-.5" vector-effect="non-scaling-stroke"/><path stroke="#808592" d="M148.75 139.88a.39.39 0 0 0-.39-.39h-1.22a.39.39 0 0 0-.39.39v8.86a.39.39 0 0 0 .39.39h1.22a.39.39 0 0 0 .39-.39v-8.86" vector-effect="non-scaling-stroke"/><path stroke="#8097b8" d="m190.97 159.67.14-1.64a.63.62-81.7 0 1 .76-.57q1.43.33 1.54-.99a.86.86 0 0 0-.66-.92c-3.13-.73-4.09 1.33-3.81 3.95a.46.45-1.1 0 1-.48.49q-1.14-.06-1.47 1.05a.65.64 14.7 0 0 .49.82l.9.19a.85.84 7 0 1 .67.85l-.19 6.72a.58.58 0 0 0 .56.6l.95.04a.62.62 0 0 0 .64-.62l-.04-7.02a.6.59 88 0 1 .55-.6l.82-.06a.78.76-82.2 0 0 .66-.51c.38-1.08-.79-1.43-1.56-1.34a.42.41-1.2 0 1-.47-.44" vector-effect="non-scaling-stroke"/><path stroke="#808592" d="M179.552 156.042a.27.27 0 0 0-.27-.27l-1.5-.003a.27.27 0 0 0-.27.27l-.024 13.92a.27.27 0 0 0 .27.27l1.5.002a.27.27 0 0 0 .27-.27l.024-13.92" vector-effect="non-scaling-stroke"/><path stroke="#8097b8" d="M197.518 156.603a.67.67 0 0 0-.638-.7l-.88-.042a.67.67 0 0 0-.7.637l-.058 1.219a.67.67 0 0 0 .638.7l.88.042a.67.67 0 0 0 .7-.637l.058-1.219m30.389 1.92a1.37 1.21 80.9 0 0 .978-1.544 1.37 1.21 80.9 0 0-1.412-1.162 1.37 1.21 80.9 0 0-.978 1.544 1.37 1.21 80.9 0 0 1.412 1.162m83.413 2.187c-5.64-3.32-7.69 6.23-2.86 9.62a.87.85-40.4 0 0 .89.06l1.93-.98a.5.5 0 0 1 .6.1l.52.53a.87.87 0 0 0 .83.26q.3-.06.5-.28c.14-.17.15-11.99.28-13.58a.61.61 0 0 0-.61-.66h-1.22a.52.52 0 0 0-.52.53l.12 4.12q.02.56-.46.28m-197.075-4.044a.76.76 0 0 0-.795-.724l-1.239.059a.76.76 0 0 0-.723.795l.047.999a.76.76 0 0 0 .795.723l1.239-.059a.76.76 0 0 0 .723-.795l-.047-.998m70.986.204a.83.83 0 0 0-.782-.875l-.82-.046a.83.83 0 0 0-.874.782l-.046.82a.83.83 0 0 0 .782.874l.82.046a.83.83 0 0 0 .874-.782l.046-.82M151.62 169.28c2.45-1.37 2.35-5.39 2.11-7.69-.7-6.6-8.59-6.7-10.04-.37q-1.29 5.6 3.15 8.73a1.37 1.35-29.6 0 0 .89.24c2.93-.23 2.23 3.35 5.39 2.41q.91-.28.16-.86l-1.74-1.35a.67.67 0 0 1 .08-1.11M82.5 159.17a.42.42 0 0 1 .42-.42l2.12-.01a.42.42 0 0 0 .42-.4l.05-1.15a.42.42 0 0 0-.42-.44h-7.63a.42.42 0 0 0-.42.4l-.05 1.16a.42.42 0 0 0 .42.44h2.17a.42.42 0 0 1 .42.42v10.66a.42.42 0 0 0 .42.42h1.66a.42.42 0 0 0 .42-.42v-10.66m184.64 10.3q-.1.09-.13.21a.33.33 0 0 0 .25.4c3.53.71 9.79-.1 7.92-5.16a1.46 1.45 4.1 0 0-.67-.77l-1.11-.59a.46.46 0 0 1-.06-.77l1.12-.84a1.58 1.52 79.9 0 0 .57-.85c1.21-4.68-3.84-4.5-7.3-4.32a.51.5 88.8 0 0-.48.51v11.94a.32.3 71.6 0 1-.11.24m-44.89-1.77v-5.11a.54.53-6 0 1 .43-.52l1.39-.26a.64.63 69.2 0 0 .42-.95q-.56-.94-1.68-.6a.45.45 0 0 1-.58-.46l.12-1.51a.54.54 0 0 0-.59-.58q-1.77.14-1.73 1.81a.7.69 83.2 0 1-.55.71l-1.02.21q-1.15.25-.15.87l1.53.95a.74.73-76.5 0 1 .36.6c.11 2.29-1.16 8.72 3.52 7.31.43-.13.76-.56.75-.97a.62.61-84 0 0-.47-.59l-1.31-.34a.59.58-83.1 0 1-.44-.57m-114.75-.03v-5.22a.47.47 0 0 1 .57-.46q1.24.29 1.72-.83a.64.64 0 0 0-.54-.89l-1.42-.09a.41.4-87 0 1-.37-.42l.05-1.51a.48.48 0 0 0-.51-.5l-.85.05a.86.85-85.5 0 0-.78.67q-.35 1.49-1.79 2.12-.94.4-.04.89l1.28.7a.72.7 14.3 0 1 .37.6c.12 2.57-1.23 9.48 4.25 7.2q1.99-.83-.1-1.39l-1.42-.38a.56.56 0 0 1-.42-.54m-14.97.63c-1.97.28-4.44.58-4.65-1.62a.56.56 0 0 1 .53-.61l4.43-.26a.69.69 0 0 0 .65-.64q.21-4.06-3.51-5.1a1.49 1.47 43.3 0 0-.89.02c-6.1 2.13-4.26 11.93 2.91 9.89q1.05-.3 1.05-1.22a.46.46 0 0 0-.52-.46m6.96-.11q-1.61.65-3.14-.21a.54.53-67.8 0 0-.78.33c-.88 3.25 4.76 1.92 6.02.46q1.47-1.7-.39-2.97l-3.33-2.28q-1.34-.91.21-1.41 1.32-.42 2.72.01a.54.54 0 0 0 .69-.41q.09-.44-.07-.89-.76-2.23-2.86-1.15c-5.91 3.05-1.71 5.27 1.08 7.31q1.01.74-.15 1.21m23.83-7.73q-1.49-.95-2.86-.03a1.69 1.65-52.1 0 1-1.46.2l-1.45-.48a.61.61 0 0 0-.8.58v9.02a.5.5 0 0 0 .5.5h1.47a.52.51 90 0 0 .51-.52c0-2.16-1.03-8.12 2.54-7.73a.8.78 3.3 0 1 .71.78l.03 6.97a.5.49 90 0 0 .49.5h1.06a.55.55 0 0 0 .55-.56l-.15-7.18a2.48 2.48 0 0 0-1.14-2.05m10.35 8.85c-.26 3.64-2.71 3.68-5.47 2.76a.46.45 13.9 0 0-.59.35q-.23 1.18 1.05 1.58c8.91 2.84 6.47-8.72 6.74-13.18a.72.71-77.3 0 0-.45-.72c-.76-.29-1.09.61-1.42 1.05a.57.56 38.1 0 1-.81.09l-1.18-.98a1.13 1.1-27.2 0 0-.81-.25c-5.66.55-4.04 14.06 2.58 9.1q.4-.29.36.2" vector-effect="non-scaling-stroke"/><path stroke="#808592" d="M171.72 164.14c-8.48-.53-5.03 9.07.07 5.39a.44.44 0 0 1 .65.15q.47.88 1.59.53a.57.55 79.3 0 0 .39-.59c-.37-3.74 1.12-13.07-6.92-8.78a.67.66-32.7 0 0-.22.99l.24.31a.63.63 0 0 0 .84.15c1.38-.89 4.21-.88 3.93 1.38a.53.53 0 0 1-.57.47" vector-effect="non-scaling-stroke"/><path stroke="#8097b8" d="M197.362 160.597a.48.48 0 0 0-.477-.483l-1.12-.008a.48.48 0 0 0-.483.477l-.064 9.16a.48.48 0 0 0 .477.483l1.12.008a.48.48 0 0 0 .483-.477l.064-9.16m8.908 7.673c-5.31 1.71-4.8-8.39 0-6.19a.49.49 0 0 0 .66-.26c.42-1.03-.28-1.69-1.31-1.8-7.58-.83-7.27 11.99.83 10.18a.7.7 0 0 0 .55-.72l-.04-.73a.53.53 0 0 0-.69-.48m3.87-5.92c1.22-.77 4.15-1.14 4.12 1.1a.52.52 0 0 1-.53.51c-8.47-.18-4.9 9.09-.25 5.7a.71.7-50.4 0 1 .72-.07l1.6.72a.41.41 0 0 0 .58-.39l-.19-7.21a1.76 1.75-62.7 0 0-.3-.95c-2.2-3.26-7.92-1.33-6.49.47a.56.55-35.4 0 0 .74.12m25.734 8.11a5.25 4.28 90.5 0 0 4.326-5.213 5.25 4.28 90.5 0 0-4.234-5.287 5.25 4.28 90.5 0 0-4.326 5.213 5.25 4.28 90.5 0 0 4.234 5.287m8.906-9.57q-.58-.72-1.43-.89a.61.61 0 0 0-.73.61l.1 9.12a.53.52 88.9 0 0 .53.52h1.24a.5.5 0 0 0 .5-.5l.03-6.23a1.49 1.49 0 0 1 1.43-1.48c2.41-.11 2 4.99 1.56 7.49a.59.59 0 0 0 .56.69l1.24.04a.67.67 0 0 0 .68-.65c.06-2.82 1.14-9.51-3.15-9.65a1.37 1.37 0 0 0-.91.3l-.92.71a.53.52 50.9 0 1-.73-.08m10.24 1.41q1.26-.9 2.59-.1a.54.53 29.1 0 0 .75-.21c1.68-3.17-3.95-1.96-5.33-.45q-1.92 2.12.57 3.53l2.97 1.66a.71.71 0 0 1 .33.82c-.46 1.56-2.73.73-3.77.53a.54.54 0 0 0-.64.55q.01.26.09.51.78 2.61 3.33 1.62 3.85-1.5 2.86-4.31a1.73 1.72 8.3 0 0-.63-.84l-3.13-2.28a.64.63-44.5 0 1 .01-1.03m26.925 8.12a5.25 4.44 90.6 0 0 4.495-5.203 5.25 4.44 90.6 0 0-4.385-5.297 5.25 4.44 90.6 0 0-4.495 5.204 5.25 4.44 90.6 0 0 4.385 5.296m11.455-6.4q-2.39-.27-4.18 1.26-2.06 1.77-.27 3.8 1.93 2.2 4.27.54a.69.66 38.4 0 1 .65-.06l1.57.69a.5.49 11.4 0 0 .7-.46l-.2-7.26a1.67 1.65 24.3 0 0-.39-1.01q-2.25-2.69-5.87-.94a.77.77 0 0 0-.43.75l.04.62a.5.49-14.7 0 0 .71.41c1.29-.6 4-1.27 3.98 1.15a.52.52 0 0 1-.58.51m7.64-2.96q-.21-1.05-1.33-1.05a.78.77 90 0 0-.77.78l.08 8.85a.62.62 0 0 0 .62.61H301a.5.5 0 0 0 .5-.5v-6.28a.87.85 79.8 0 1 .55-.81l1.52-.58a.68.67 77.4 0 0 .43-.69l-.11-1.14q-.09-1.07-.89-.35l-1.46 1.33q-.4.36-.5-.17m-186.964-.306a.46.46 0 0 0-.459-.461l-1.6-.006a.46.46 0 0 0-.461.459l-.032 9.02a.46.46 0 0 0 .459.461l1.6.006a.46.46 0 0 0 .461-.459l.032-9.02" vector-effect="non-scaling-stroke"/><path stroke="#808592" d="M160.57 168.37a1.25 1.25 0 0 1-1.66-1.16l-.11-6.38a.57.57 0 0 0-.55-.56l-1.08-.03a.6.6 0 0 0-.61.65c.2 2.68-.99 9.69 3.29 9.39a1.44 1.42 20.3 0 0 .89-.4l.82-.81a.49.48 52.2 0 1 .76.1l.39.69a.79.78-16.6 0 0 .71.38l.35-.01a.56.56 0 0 0 .53-.56l.06-8.6a.8.8 0 0 0-.8-.81l-1.02-.01a.48.48 0 0 0-.48.5c.08 2.03.94 6.79-1.49 7.62" vector-effect="non-scaling-stroke"/><path stroke="#8097b8" d="M185.024 160.606a.34.34 0 0 0-.338-.342l-1.48-.008a.34.34 0 0 0-.342.338l-.048 9.3a.34.34 0 0 0 .338.342l1.48.008a.34.34 0 0 0 .342-.338l.048-9.3m43.726-.036a.31.31 0 0 0-.31-.31h-1.38a.31.31 0 0 0-.31.31v9.38a.31.31 0 0 0 .31.31h1.38a.31.31 0 0 0 .31-.31v-9.38" vector-effect="non-scaling-stroke"/><path stroke="#80a9c4" d="m198.11 94.3.06-2.43a1.21 1.19-22.6 0 1 .34-.81q1.43-1.51 2.71-.27a1.49 1.41-73.2 0 1 .42.84l.35 2.67q.12.91.71.21c3.65-4.36-6.08-8.24-6.07-1.47.01 2.52 2.58 3.33 4.65 2.73a.51.51 0 0 0 .25-.82l-.93-1.09a.73.73 0 0 0-1.07-.03l-.73.76q-.72.73-.69-.29" vector-effect="non-scaling-stroke"/><path stroke="#00407d" d="m181 105.04-.1 1.49a.46.45 86.6 0 0 .53.48q7.32-1.42 8.27-8.7a.66.66 0 0 0-.48-.72q-.56-.15-.93.16" vector-effect="non-scaling-stroke"/><path stroke="#80a9c4" d="M188.29 97.75c-1.4-4.9-6.99-4.1-10.95-4a.57.57 0 0 0-.55.56l-.18 9.96a.59.59 0 0 0 .57.6l3.82.17" vector-effect="non-scaling-stroke"/><path stroke="#8097b8" d="M188.29 97.75q.69 7.76-7.29 7.29" vector-effect="non-scaling-stroke"/><path stroke="#80a9c4" d="m176.25 121.58 7.93.3" vector-effect="non-scaling-stroke"/><path stroke="#00407d" d="M184.18 121.88q1.02 1.73 2.89-.09c2.27-2.22 4.23-4.67 3-7.99-1.91-5.11-6.79-6.04-12.18-5.63a1.26 1.23-72.2 0 0-.87.46l-1.18 1.5a1.3 1.29-28 0 0-.28.91l.69 10.54" vector-effect="non-scaling-stroke"/><path stroke="#8097b8" d="M184.18 121.88q5.91-1.38 5.05-7.16c-.85-5.76-7.06-5.22-12.09-4.84a.56.55-1.2 0 0-.51.53l-.38 11.17" vector-effect="non-scaling-stroke"/><path stroke="#80a9c4" d="M143.5 93.21h-2.25" vector-effect="non-scaling-stroke"/><path stroke="#00407d" d="M141.25 93.21q.11-.31.01-.61a.62.62 0 0 0-.7-.41c-10.31 1.99-10.62 16-8.37 23.69 2.64 9 12.74 11.12 18.14 3.25q2.34-3.42 1.96-7.9" vector-effect="non-scaling-stroke"/><path stroke="#80a9c4" d="m152.29 111.23-.5-6.98" vector-effect="non-scaling-stroke"/><path stroke="#00407d" d="m151.79 104.25.65-.28a.7.69 74.4 0 0 .41-.73q-1.04-7.71-7.87-11.08a.92.91-50.9 0 0-.98.11q-.46.38-.5.94" vector-effect="non-scaling-stroke"/><path stroke="#8097b8" d="M151.79 104.25c-.58-4.93-2.97-9.94-8.29-11.04m-2.25 0c-10.47 1.68-10.23 16.25-7.49 23.47 2.6 6.83 10.82 8.2 15.1 2.06q2.3-3.29 3.43-7.51M106.9 142.5c-.72-2.29-3.12-2.48-3.64.09a.55.55 0 0 0 .54.66h2.56a.57.57 0 0 0 .54-.75m24.2 4.77q2.38.81 3.19-1.28a1.13 1.12 10.7 0 0-1.05-1.53q-1.52-.02-2.55.96a1.11 1.1 32.6 0 0 .41 1.85" vector-effect="non-scaling-stroke"/><path stroke="#808592" d="M155.874 147.59a3.43 2.19 89.6 0 0 2.166-3.445 3.43 2.19 89.6 0 0-2.214-3.415 3.43 2.19 89.6 0 0-2.166 3.445 3.43 2.19 89.6 0 0 2.214 3.415" vector-effect="non-scaling-stroke"/><path stroke="#8097b8" d="M175.37 147.35q1.49.48 2.58-.54a1.02 1.01-22.1 0 0 .31-.73l-.02-1.02a.6.6 0 0 0-.5-.58q-1.66-.26-2.83.85a1.2 1.2 0 0 0 .46 2.02m32.804.27a3.45 2.06 91.1 0 0 2.126-3.41 3.45 2.06 91.1 0 0-1.994-3.49 3.45 2.06 91.1 0 0-2.126 3.41 3.45 2.06 91.1 0 0 1.994 3.49m37.336-1.72a1.16 1.16 0 0 0 1.11 1.65q1.79-.08 2.43-1.79a.96.96 0 0 0-.78-1.3q-1.98-.25-2.76 1.44m17.41-3.3a.48.47-79.4 0 0 .44.65h2.35a.63.62-83.2 0 0 .62-.5c.45-2.03-2.31-2.98-3.41-.15m46.852 25.96a3.39 2.01 89.8 0 0 1.998-3.397 3.39 2.01 89.8 0 0-2.022-3.383 3.39 2.01 89.8 0 0-1.998 3.397 3.39 2.01 89.8 0 0 2.022 3.383m-160.933.02a5.1 2.95 89.9 0 0 2.941-5.105 5.1 2.95 89.9 0 0-2.959-5.095 5.1 2.95 89.9 0 0-2.941 5.105 5.1 2.95 89.9 0 0 2.959 5.095m123.811-7.77a1.51 1.51 0 0 0-1.03-1.96l-1.39-.37a.58.58 0 0 0-.73.56v2.6a.57.56 8.3 0 0 .41.54q2.06.59 2.74-1.37m.34 5.74q.77-1.86-1.23-2.12l-1.7-.22a.5.49 3.6 0 0-.56.49v3a.54.54 0 0 0 .46.53q2.19.34 3.03-1.68m-181.54-2.67c.32-2.45-2.57-3.44-3.59-.32a.72.71-81.2 0 0 .68.94h2.2a.72.71 3.6 0 0 .71-.62m40.69-1.79q-1.87-2-2.44.67-.5 2.28.02 4.6.59 2.67 2.45.67 2.75-2.94-.03-5.94" vector-effect="non-scaling-stroke"/><path stroke="#808592" d="M170.13 168.65a1.53 1.52 14.8 0 0 1.65-.95l.54-1.4a.59.59 0 0 0-.44-.79c-2.77-.49-5.12 2.64-1.75 3.14" vector-effect="non-scaling-stroke"/><path stroke="#8097b8" d="M210.57 166.73a.97.97 0 0 0 .39 1.48q2.45 1.06 3.33-1.39a1.01 1.01 0 0 0-.9-1.35q-1.79-.1-2.82 1.26m25.264 1.91a3.5 2.14 90.1 0 0 2.146-3.496 3.5 2.14 90.1 0 0-2.134-3.504 3.5 2.14 90.1 0 0-2.146 3.496 3.5 2.14 90.1 0 0 2.134 3.504m46.272.02a3.49 1.9 89.4 0 0 1.864-3.51 3.49 1.9 89.4 0 0-1.937-3.47 3.49 1.9 89.4 0 0-1.863 3.51 3.49 1.9 89.4 0 0 1.936 3.47m11.954-2.35q.29-.2.09-.66a.74.74 0 0 0-.92-.43q-3.27 1.1-2.69 2.56a1.42 1.41 63.6 0 0 2.04.69q1.3-.79 1.48-2.16" vector-effect="non-scaling-stroke"/></g><path fill="#fff" d="M0 0h350v200H0V0Zm85.85 78.87c6.42-.27 12.97.41 19.38.13a1.31 1.27-68.1 0 0 .86-.38c20.69-20.92 47.06-35.19 74.59-44.96q24.21-8.58 44.76-12.23 8.37-1.48-.13-1.43c-49.82.31-108.14 16.5-139.91 58.02q-.69.9.45.85Zm118.18 13.9a3.99 3.99 0 0 0-3.99-3.99 3.99 3.99 0 0 0-3.99 3.99 3.99 3.99 0 0 0 3.99 3.99 3.99 3.99 0 0 0 3.99-3.99ZM80.04 91q-.43.78-1.25.25-2.07-2.16-5.55-2.44-12.24-1-12.98 9.65c-1 14.45 22.34 9.84 18.76 20.29-1.98 5.78-11.6 4.55-12.43-1.5q-.2-1.5-.38-3.02a.54.53 87 0 0-.53-.48h-5.13a.45.45 0 0 0-.45.45l.02 11.9a.55.53 6.9 0 0 .42.52c.7.15 4.74.37 5.18-.16a.84.83 58.7 0 0 .18-.76l-.4-1.61q-.3-1.19.57-.32c9.08 9.13 24.58.45 19.23-12.73q-1.06-2.59-3.64-3.68l-12.21-5.12q-1.89-.8-2.19-2.82c-1.25-8.75 11.66-8.04 12.05-.79q.06 1.19.21 2.39a.55.54 86.4 0 0 .54.48H85a.5.5 0 0 0 .5-.5V89.88a.63.63 0 0 0-.63-.63H80.5a.66.66 0 0 0-.66.62q-.04.6.2 1.13Zm67.21 36.21 13.73-.21a.53.53 0 0 0 .52-.53v-4.04a.54.54 0 0 0-.58-.54l-7.14.55a.38.37 4.4 0 1-.4-.46q.07-.29.41-.48c10.48-8.78 6.5-30-7.78-32.46-16.62-2.86-24.4 11.4-20.56 25.77q2.32 8.68 10.33 11.6c3.43 1.25 7.68.88 11.47.8Zm-101-.5 5.61-.09a.56.56 0 0 0 .55-.58l-.11-3.99-3.86-.36a.51.51 0 0 1-.47-.51l.04-26.81a.62.62 0 0 1 .62-.62H52a.5.5 0 0 0 .5-.5v-3.5a.5.5 0 0 0-.5-.5H36.5a.5.5 0 0 0-.5.5v3.5a.5.5 0 0 0 .5.5h3.75a.5.5 0 0 1 .5.5v26.97a.5.49 88.8 0 1-.47.5l-3.77.18a.53.53 0 0 0-.51.53v3.71a.53.53 0 0 0 .53.53l9.72.04Zm64.19-4.86a.48.48 0 0 1-.46-.48l.14-26.9a.48.48 0 0 1 .48-.48l4.92.01a.48.48 0 0 1 .48.48v7.05a.48.48 0 0 0 .48.48l5-.03a.48.48 0 0 0 .48-.47l.28-11.77a.48.48 0 0 0-.48-.49H91.48a.48.48 0 0 0-.48.48v11.79a.48.48 0 0 0 .48.48h5.04a.48.48 0 0 0 .48-.48v-6.98a.48.48 0 0 1 .48-.48l4.82-.06a.48.48 0 0 1 .48.48l.27 26.73a.48.48 0 0 1-.45.48l-4.41.35a.48.48 0 0 0-.44.47v3.76a.48.48 0 0 0 .48.48h16.54a.48.48 0 0 0 .48-.48v-3.74a.48.48 0 0 0-.46-.48l-4.35-.2Zm59.1-27.6q-.43 13.59.44 27.3l-2.48.49q-.76-.27-1.58-.17a.66.66 0 0 0-.58.64l-.06 3.63a.52.52 0 0 0 .51.52q17.33.51 21.63-.22c10.19-1.73 12.62-15.01 2.62-18.69l-.54-.52a.31.31 0 0 1 0-.46l.25-.23c8.2-2.51 7.52-13.85 0-16.58-6.31-1.88-17.04-.72-23.86-.69a.64.63 0 0 0-.64.63v3.3a.54.53 85.4 0 0 .62.53q2-.32 3.67.52Zm15.992 40.822a.5.5 0 0 0-.5-.501l-1.02-.002a.5.5 0 0 0-.5.5l-.024 13.66a.5.5 0 0 0 .5.5l1.02.002a.5.5 0 0 0 .5-.5l.024-13.66Zm32.358 3.358-.01-1.4a.68.67-86.3 0 1 .76-.67q1.48.17 1.86-1.13a.44.44 0 0 0-.33-.56c-4.04-.9-4.64.92-4.26 4.11a.42.42 0 0 1-.5.46q-.77-.16-1.25.49a.62.62 0 0 0 .23.92l1.01.49a.62.62 0 0 1 .35.56v6.97a.6.59-3.4 0 0 .67.59l1.08-.13a.57.56-3.4 0 0 .5-.56v-6.95a.62.62 0 0 1 .63-.62h.52a.65.65 0 0 0 .66-.65V140a.7.7 0 0 0-.57-.69l-.75-.16a.75.73 5.8 0 1-.6-.72Zm-70.12-1.07a1.23 1.23 0 0 0 1.24-1.26l-.01-.36a.76.76 0 0 0-.76-.74l-.62-.01a.75.74 11.2 0 0-.69.46q-.81 1.9.84 1.91Zm-86.5-1.98a.45.44 6.1 0 0-.45.36q-4.09 20.08-4.4 40.58a.12.11 12.6 0 0 .07.1l.25.08a.18.18 0 0 0 .23-.14q2.77-20.85 11.25-40.07a.55.55 0 0 0-.49-.77l-6.46-.14Zm19.25.732a.6.6 0 0 0-.598-.601l-1.06-.002a.6.6 0 0 0-.601.599l-.022 12.54a.6.6 0 0 0 .599.601l1.06.002a.6.6 0 0 0 .601-.599l.022-12.54Zm116.05 11.218-1.77-.42a.49.48-79 0 0-.59.4c-.8 5.13 15.76-.72 2.56-6.96a.75.74 17.3 0 1-.42-.79l.25-1.51a.74.73-83.2 0 1 .78-.62l2.95.25a.62.62 0 0 0 .66-.48q.11-.48.01-.84-.59-2.1-2.66-1.4-5.14 1.73-4.11 5.3c.59 2.07 7.81 4.91 3.98 6.88a2.39 2.35-51.1 0 1-1.64.19Zm-99.31-8.72.27-1.39q.19-.98-.75-.65l-1.45.5a.74.73-23.2 0 0-.41 1.02l.36.72q.48.96-.51.55-1.02-.42-1.55.34a.66.66 0 0 0 .3 1l1.09.43a.59.58-78.6 0 1 .37.56c-.06 2.42-.92 9.2 3.97 7.31q1.22-.47.1-1.14l-1.32-.8a.98.98 0 0 1-.48-.86v-4.74a.47.47 0 0 1 .55-.46q1.09.19 1.6-.77a.55.55 0 0 0-.38-.8l-1.39-.26a.47.47 0 0 1-.37-.56Zm42.95.39-.25.25q-.92-.12-1.59.29-1.15.71.15 1.09l1.38.41a.47.47 0 0 1 .34.45l.03 5.7a2.02 2 12.5 0 0 1.16 1.8q2.09.96 2.95-.63a.58.58 0 0 0-.43-.85l-1.22-.17a.56.56 0 0 1-.48-.55v-5.2a.57.56 82.8 0 1 .42-.55l1.22-.34a.7.69-3.8 0 0 .51-.58c.14-1.03-1.47-1.05-2.15-.58l-.29-.29q.5-1.09.33-2.2a.55.54 81.9 0 0-.61-.46q-1.83.22-1.47 2.41Zm85.18 2.01q1.03.11 1.77-.53 1.05-.91-.33-1.08l-1.54-.18a.42.42 0 0 1-.36-.5l.3-1.49a.55.55 0 0 0-.52-.65q-2.1-.09-1.98 1.69a.88.88 0 0 1-.38.78l-1 .7q-.86.6.11.99l.96.38a.76.76 0 0 1 .47.77c-.25 2.48-1.12 9.57 4.28 6.92q1.84-.9-.17-1.31l-1.58-.32a.53.52-84.8 0 1-.42-.52v-5.3a.35.35 0 0 1 .39-.35Zm-139.91-.64q-.25-1.45-1.55-1.09a.58.58 0 0 0-.41.64q.52 3.81.04 7.71c-.15 1.15.26 1.83 1.49 1.67a.65.63-1.7 0 0 .56-.58c.15-1.66-.85-9.21 2.89-7.45a.98.95 8.5 0 1 .55.72c.29 1.71-.97 8.15 1.92 7.24a.81.81 0 0 0 .57-.79l-.12-6.58q-.04-2.15-2.15-2.57-2.08-.41-3.17 1.21-.47.71-.62-.13Zm22.56 6.92c-1.62.16-4.69.81-4.68-1.91a.64.63 0 0 1 .64-.63h4.51a.58.57-87.2 0 0 .57-.52c.33-3.66-3.04-6.44-6.3-4.17q-2.01 1.4-1.82 3.84c.5 6.35 7.89 6.37 7.66 3.86a.53.52-5.4 0 0-.58-.47Zm5.55-6.85q-.35-.18-.37-.64a.57.57 0 0 0-.57-.55h-.71a.55.55 0 0 0-.55.56l.16 8.84a.61.61 0 0 0 .61.6h.97a.63.62 90 0 0 .62-.63v-5.89a.94.94 0 0 1 .52-.84l1.82-.89a.71.7 76.2 0 0 .4-.67l-.02-.42a.72.72 0 0 0-.75-.69q-.97.03-1.46 1a.5.49 26.6 0 1-.67.22Zm7.03-.35q-.11-.86-.96-.87a1.12 1.12 0 0 0-1.15 1.12l-.02 8.32a.62.61-2.6 0 0 .67.61l1.23-.12a.69.69 0 0 0 .63-.7c-.04-1.84-.92-7.33 1.86-7.46a1.04 1.04 0 0 1 1.1 1.03l.03 6.6a.54.54 0 0 0 .55.54h1.22a.63.63 0 0 0 .63-.68c-.22-2.72 1.17-9.94-3.57-9.23a1.55 1.55 0 0 0-.89.44l-.65.64q-.58.57-.68-.24Zm13.44-.65q-3.92-1.24-4.5.37l-.29.79q-.29.8.54.65c1.34-.25 4.49-1.32 4.59 1.13a.49.48-5.2 0 1-.42.5l-3.43.52q-2.19.33-2.07 2.54c.2 3.57 2.65 3.9 5.26 2.5a.69.68 45.4 0 1 .68.01l1.28.77q.81.49.74-.46c-.21-2.76.86-8.3-2.38-9.32Zm21.749 9.88a5.12 4.28 90.8 0 0 4.35-5.06 5.12 4.28 90.8 0 0-4.207-5.18 5.12 4.28 90.8 0 0-4.352 5.06 5.12 4.28 90.8 0 0 4.209 5.18Zm9.281-8.94q-.35-.02-.4-.56a.65.65 0 0 0-.68-.59l-.85.05a.6.6 0 0 0-.57.61l.22 8.79a.6.59 87.6 0 0 .62.58l1.16-.06a.6.6 0 0 0 .56-.67c-.18-1.66-1.13-7.82 1.94-7.48a.86.86 0 0 1 .74.62q.9 3.25.12 6.58a.69.69 0 0 0 .57.83l1.29.2a.61.61 0 0 0 .7-.6l-.02-6.64q0-1.71-1.55-2.43-2.19-1.02-3.16.43a.78.77-70.8 0 1-.69.34Zm12.91.79.29 1.28a.46.45-4.6 0 1-.48.56q-2.32-.18-4.28 1.01-2.04 1.24-.89 3.33 1.69 3.06 4.83 1.29a.96.95 42.6 0 1 .84-.03l1.43.64a.54.53 10.7 0 0 .76-.51l-.31-7.3a1.31 1.3 20.1 0 0-.43-.92q-2.64-2.41-6.33-.63-1.48.71.11 1.12 1.58.41 3.11-.44a.93.92-20.8 0 1 1.35.6Zm30.273 8.12a5.09 4.41 89.4 0 0 4.357-5.136 5.09 4.41 89.4 0 0-4.463-5.044 5.09 4.41 89.4 0 0-4.357 5.136 5.09 4.41 89.4 0 0 4.463 5.044Zm29.507-3.32-1.03-6a.76.76 0 0 0-.7-.63l-1.59-.11a.61.61 0 0 0-.63.49c-.42 2.14-1.24 6.65-1.65 6.75a.43.42 78.3 0 1-.51-.34l-1.01-6.04a.75.75 0 0 0-.64-.61l-1.15-.13a.51.51 0 0 0-.55.65l2.31 8.38a.93.93 0 0 0 .83.69l1.19.1a.67.67 0 0 0 .71-.53l1.37-6.68q.31-1.47.64 0l1.42 6.28a.87.87 0 0 0 .73.66l1.15.17a.78.77 11.6 0 0 .85-.56l2.41-8.56a.52.52 0 0 0-.51-.67l-.94.02a.73.73 0 0 0-.71.62c-.18 1.35-1.02 6.29-1.49 6.38a.42.41-10.7 0 1-.5-.33Zm10.65-2.97q-2.32-.14-4.24 1.14-2.14 1.42-.62 3.5 2.07 2.8 4.77.7a.62.62 0 0 1 .93.2q.58 1.1 1.67.59a.76.76 0 0 0 .44-.75c-.21-2.5.52-6.46-1.2-8.19-1.03-1.04-5.7-1.87-5.96.53a.49.49 0 0 0 .58.53c1.15-.22 4.36-1.12 4.21 1.24a.54.54 0 0 1-.58.51Zm7.47-3.02c-.34-.71-.79-.96-1.57-.65a.66.66 0 0 0-.42.63l.04 8.61a.6.59-88.4 0 0 .55.59l1.28.1a.53.53 0 0 0 .58-.54l-.12-4.28q-.05-1.95 1.67-2.87 1.54-.82.98-2.09a.55.55 0 0 0-.82-.23l-1.36.94a.56.55-30.2 0 1-.81-.21Zm7.37 4.81 4.71-.02a.71.7-86.8 0 0 .7-.63c.54-4.85-5.55-7.22-7.57-2.08-1.82 4.64 2.01 8.91 6.68 6.64a.82.82 0 0 0 .46-.72l.01-.33a.48.48 0 0 0-.59-.48c-1.82.41-4.47.7-4.83-1.88a.44.43 86 0 1 .43-.5Zm-114.52-4.91a.39.39 0 0 0-.39-.39h-1.22a.39.39 0 0 0-.39.39v8.86a.39.39 0 0 0 .39.39h1.22a.39.39 0 0 0 .39-.39v-8.86Zm42.22 19.79.14-1.64a.63.62-81.7 0 1 .76-.57q1.43.33 1.54-.99a.86.86 0 0 0-.66-.92c-3.13-.73-4.09 1.33-3.81 3.95a.46.45-1.1 0 1-.48.49q-1.14-.06-1.47 1.05a.65.64 14.7 0 0 .49.82l.9.19a.85.84 7 0 1 .67.85l-.19 6.72a.58.58 0 0 0 .56.6l.95.04a.62.62 0 0 0 .64-.62l-.04-7.02a.6.59 88 0 1 .55-.6l.82-.06a.78.76-82.2 0 0 .66-.51c.38-1.08-.79-1.43-1.56-1.34a.42.41-1.2 0 1-.47-.44Zm-11.418-3.628a.27.27 0 0 0-.27-.27l-1.5-.003a.27.27 0 0 0-.27.27l-.024 13.92a.27.27 0 0 0 .27.27l1.5.002a.27.27 0 0 0 .27-.27l.024-13.92Zm17.966.561a.67.67 0 0 0-.638-.7l-.88-.042a.67.67 0 0 0-.7.637l-.058 1.219a.67.67 0 0 0 .638.7l.88.042a.67.67 0 0 0 .7-.637l.058-1.219Zm30.389 1.92a1.37 1.21 80.9 0 0 .978-1.544 1.37 1.21 80.9 0 0-1.412-1.162 1.37 1.21 80.9 0 0-.978 1.544 1.37 1.21 80.9 0 0 1.412 1.162Zm83.413 2.187c-5.64-3.32-7.69 6.23-2.86 9.62a.87.85-40.4 0 0 .89.06l1.93-.98a.5.5 0 0 1 .6.1l.52.53a.87.87 0 0 0 .83.26q.3-.06.5-.28c.14-.17.15-11.99.28-13.58a.61.61 0 0 0-.61-.66h-1.22a.52.52 0 0 0-.52.53l.12 4.12q.02.56-.46.28Zm-197.075-4.044a.76.76 0 0 0-.795-.724l-1.239.059a.76.76 0 0 0-.723.795l.047.999a.76.76 0 0 0 .795.723l1.239-.059a.76.76 0 0 0 .723-.795l-.047-.998Zm70.986.204a.83.83 0 0 0-.782-.875l-.82-.046a.83.83 0 0 0-.874.782l-.046.82a.83.83 0 0 0 .782.874l.82.046a.83.83 0 0 0 .874-.782l.046-.82Zm-33.611 12.41c2.45-1.37 2.35-5.39 2.11-7.69-.7-6.6-8.59-6.7-10.04-.37q-1.29 5.6 3.15 8.73a1.37 1.35-29.6 0 0 .89.24c2.93-.23 2.23 3.35 5.39 2.41q.91-.28.16-.86l-1.74-1.35a.67.67 0 0 1 .08-1.11ZM82.5 159.17a.42.42 0 0 1 .42-.42l2.12-.01a.42.42 0 0 0 .42-.4l.05-1.15a.42.42 0 0 0-.42-.44h-7.63a.42.42 0 0 0-.42.4l-.05 1.16a.42.42 0 0 0 .42.44h2.17a.42.42 0 0 1 .42.42v10.66a.42.42 0 0 0 .42.42h1.66a.42.42 0 0 0 .42-.42v-10.66Zm184.64 10.3q-.1.09-.13.21a.33.33 0 0 0 .25.4c3.53.71 9.79-.1 7.92-5.16a1.46 1.45 4.1 0 0-.67-.77l-1.11-.59a.46.46 0 0 1-.06-.77l1.12-.84a1.58 1.52 79.9 0 0 .57-.85c1.21-4.68-3.84-4.5-7.3-4.32a.51.5 88.8 0 0-.48.51v11.94a.32.3 71.6 0 1-.11.24Zm-44.89-1.77v-5.11a.54.53-6 0 1 .43-.52l1.39-.26a.64.63 69.2 0 0 .42-.95q-.56-.94-1.68-.6a.45.45 0 0 1-.58-.46l.12-1.51a.54.54 0 0 0-.59-.58q-1.77.14-1.73 1.81a.7.69 83.2 0 1-.55.71l-1.02.21q-1.15.25-.15.87l1.53.95a.74.73-76.5 0 1 .36.6c.11 2.29-1.16 8.72 3.52 7.31.43-.13.76-.56.75-.97a.62.61-84 0 0-.47-.59l-1.31-.34a.59.58-83.1 0 1-.44-.57Zm-114.75-.03v-5.22a.47.47 0 0 1 .57-.46q1.24.29 1.72-.83a.64.64 0 0 0-.54-.89l-1.42-.09a.41.4-87 0 1-.37-.42l.05-1.51a.48.48 0 0 0-.51-.5l-.85.05a.86.85-85.5 0 0-.78.67q-.35 1.49-1.79 2.12-.94.4-.04.89l1.28.7a.72.7 14.3 0 1 .37.6c.12 2.57-1.23 9.48 4.25 7.2q1.99-.83-.1-1.39l-1.42-.38a.56.56 0 0 1-.42-.54Zm-14.97.63c-1.97.28-4.44.58-4.65-1.62a.56.56 0 0 1 .53-.61l4.43-.26a.69.69 0 0 0 .65-.64q.21-4.06-3.51-5.1a1.49 1.47 43.3 0 0-.89.02c-6.1 2.13-4.26 11.93 2.91 9.89q1.05-.3 1.05-1.22a.46.46 0 0 0-.52-.46Zm6.96-.11q-1.61.65-3.14-.21a.54.53-67.8 0 0-.78.33c-.88 3.25 4.76 1.92 6.02.46q1.47-1.7-.39-2.97l-3.33-2.28q-1.34-.91.21-1.41 1.32-.42 2.72.01a.54.54 0 0 0 .69-.41q.09-.44-.07-.89-.76-2.23-2.86-1.15c-5.91 3.05-1.71 5.27 1.08 7.31q1.01.74-.15 1.21Zm23.83-7.73q-1.49-.95-2.86-.03a1.69 1.65-52.1 0 1-1.46.2l-1.45-.48a.61.61 0 0 0-.8.58v9.02a.5.5 0 0 0 .5.5h1.47a.52.51 90 0 0 .51-.52c0-2.16-1.03-8.12 2.54-7.73a.8.78 3.3 0 1 .71.78l.03 6.97a.5.49 90 0 0 .49.5h1.06a.55.55 0 0 0 .55-.56l-.15-7.18a2.48 2.48 0 0 0-1.14-2.05Zm10.35 8.85c-.26 3.64-2.71 3.68-5.47 2.76a.46.45 13.9 0 0-.59.35q-.23 1.18 1.05 1.58c8.91 2.84 6.47-8.72 6.74-13.18a.72.71-77.3 0 0-.45-.72c-.76-.29-1.09.61-1.42 1.05a.57.56 38.1 0 1-.81.09l-1.18-.98a1.13 1.1-27.2 0 0-.81-.25c-5.66.55-4.04 14.06 2.58 9.1q.4-.29.36.2Zm38.05-5.17c-8.48-.53-5.03 9.07.07 5.39a.44.44 0 0 1 .65.15q.47.88 1.59.53a.57.55 79.3 0 0 .39-.59c-.37-3.74 1.12-13.07-6.92-8.78a.67.66-32.7 0 0-.22.99l.24.31a.63.63 0 0 0 .84.15c1.38-.89 4.21-.88 3.93 1.38a.53.53 0 0 1-.57.47Zm25.642-3.543a.48.48 0 0 0-.477-.483l-1.12-.008a.48.48 0 0 0-.483.477l-.064 9.16a.48.48 0 0 0 .477.483l1.12.008a.48.48 0 0 0 .483-.477l.064-9.16Zm8.908 7.673c-5.31 1.71-4.8-8.39 0-6.19a.49.49 0 0 0 .66-.26c.42-1.03-.28-1.69-1.31-1.8-7.58-.83-7.27 11.99.83 10.18a.7.7 0 0 0 .55-.72l-.04-.73a.53.53 0 0 0-.69-.48Zm3.87-5.92c1.22-.77 4.15-1.14 4.12 1.1a.52.52 0 0 1-.53.51c-8.47-.18-4.9 9.09-.25 5.7a.71.7-50.4 0 1 .72-.07l1.6.72a.41.41 0 0 0 .58-.39l-.19-7.21a1.76 1.75-62.7 0 0-.3-.95c-2.2-3.26-7.92-1.33-6.49.47a.56.55-35.4 0 0 .74.12Zm25.734 8.11a5.25 4.28 90.5 0 0 4.326-5.213 5.25 4.28 90.5 0 0-4.234-5.287 5.25 4.28 90.5 0 0-4.326 5.213 5.25 4.28 90.5 0 0 4.234 5.287Zm8.906-9.57q-.58-.72-1.43-.89a.61.61 0 0 0-.73.61l.1 9.12a.53.52 88.9 0 0 .53.52h1.24a.5.5 0 0 0 .5-.5l.03-6.23a1.49 1.49 0 0 1 1.43-1.48c2.41-.11 2 4.99 1.56 7.49a.59.59 0 0 0 .56.69l1.24.04a.67.67 0 0 0 .68-.65c.06-2.82 1.14-9.51-3.15-9.65a1.37 1.37 0 0 0-.91.3l-.92.71a.53.52 50.9 0 1-.73-.08Zm10.24 1.41q1.26-.9 2.59-.1a.54.53 29.1 0 0 .75-.21c1.68-3.17-3.95-1.96-5.33-.45q-1.92 2.12.57 3.53l2.97 1.66a.71.71 0 0 1 .33.82c-.46 1.56-2.73.73-3.77.53a.54.54 0 0 0-.64.55q.01.26.09.51.78 2.61 3.33 1.62 3.85-1.5 2.86-4.31a1.73 1.72 8.3 0 0-.63-.84l-3.13-2.28a.64.63-44.5 0 1 .01-1.03Zm26.925 8.12a5.25 4.44 90.6 0 0 4.495-5.203 5.25 4.44 90.6 0 0-4.385-5.297 5.25 4.44 90.6 0 0-4.495 5.204 5.25 4.44 90.6 0 0 4.385 5.296Zm11.455-6.4q-2.39-.27-4.18 1.26-2.06 1.77-.27 3.8 1.93 2.2 4.27.54a.69.66 38.4 0 1 .65-.06l1.57.69a.5.49 11.4 0 0 .7-.46l-.2-7.26a1.67 1.65 24.3 0 0-.39-1.01q-2.25-2.69-5.87-.94a.77.77 0 0 0-.43.75l.04.62a.5.49-14.7 0 0 .71.41c1.29-.6 4-1.27 3.98 1.15a.52.52 0 0 1-.58.51Zm7.64-2.96q-.21-1.05-1.33-1.05a.78.77 90 0 0-.77.78l.08 8.85a.62.62 0 0 0 .62.61H301a.5.5 0 0 0 .5-.5v-6.28a.87.85 79.8 0 1 .55-.81l1.52-.58a.68.67 77.4 0 0 .43-.69l-.11-1.14q-.09-1.07-.89-.35l-1.46 1.33q-.4.36-.5-.17Zm-186.964-.306a.46.46 0 0 0-.459-.461l-1.6-.006a.46.46 0 0 0-.461.459l-.032 9.02a.46.46 0 0 0 .459.461l1.6.006a.46.46 0 0 0 .461-.459l.032-9.02Zm46.494 7.616a1.25 1.25 0 0 1-1.66-1.16l-.11-6.38a.57.57 0 0 0-.55-.56l-1.08-.03a.6.6 0 0 0-.61.65c.2 2.68-.99 9.69 3.29 9.39a1.44 1.42 20.3 0 0 .89-.4l.82-.81a.49.48 52.2 0 1 .76.1l.39.69a.79.78-16.6 0 0 .71.38l.35-.01a.56.56 0 0 0 .53-.56l.06-8.6a.8.8 0 0 0-.8-.81l-1.02-.01a.48.48 0 0 0-.48.5c.08 2.03.94 6.79-1.49 7.62Zm24.454-7.764a.34.34 0 0 0-.338-.342l-1.48-.008a.34.34 0 0 0-.342.338l-.048 9.3a.34.34 0 0 0 .338.342l1.48.008a.34.34 0 0 0 .342-.338l.048-9.3Zm43.726-.036a.31.31 0 0 0-.31-.31h-1.38a.31.31 0 0 0-.31.31v9.38a.31.31 0 0 0 .31.31h1.38a.31.31 0 0 0 .31-.31v-9.38Z"/><path fill="#d31145" d="M105.23 79c-6.41.28-12.96-.4-19.38-.13q-1.14.05-.45-.85C117.17 36.5 175.49 20.31 225.31 20q8.5-.05.13 1.43-20.55 3.65-44.76 12.23c-27.53 9.77-53.9 24.04-74.59 44.96a1.31 1.27-68.1 0 1-.86.38Z"/><path fill="#005289" d="M204.03 92.77a3.99 3.99 0 0 1-3.99 3.99 3.99 3.99 0 0 1-3.99-3.99 3.99 3.99 0 0 1 3.99-3.99 3.99 3.99 0 0 1 3.99 3.99Zm-5.92 1.53.06-2.43a1.21 1.19-22.6 0 1 .34-.81q1.43-1.51 2.71-.27a1.49 1.41-73.2 0 1 .42.84l.35 2.67q.12.91.71.21c3.65-4.36-6.08-8.24-6.07-1.47.01 2.52 2.58 3.33 4.65 2.73a.51.51 0 0 0 .25-.82l-.93-1.09a.73.73 0 0 0-1.07-.03l-.73.76q-.72.73-.69-.29Z"/><path fill="#002e71" d="M78.79 91.25q-.43.79-1.18.35c-4.82-2.84-11.94-2.98-15.05 2.31-2.1 3.59-1.75 10.65 2.5 12.82 3.27 1.68 11.58 3.16 14.57 7.64q1.45 2.16.41 4.55c-3.23 7.39-14.76 6.25-14.33-3.48a.86.86 0 0 0-.5-.81q-2.18-1-4.03.53a1 1 0 0 0-.35.84l.57 8.59a.62.61-83.9 0 0 .44.55q2.26.72 2.76-1.29a.91.89 89.5 0 1 .62-.64l1.73-.5a.56.55-22.5 0 1 .62.25c2.14 3.71 7.3 3.7 10.97 2.75 6-1.54 8.15-8.01 6.02-13.51-3.17-8.19-22.62-5.64-17.43-17.4q1.22-2.77 4.24-2.9 8.17-.34 9.35 7.82a.67.65 83.5 0 0 .7.57l2.55-.18a.59.59 0 0 0 .55-.62l-.34-8.28a.69.68 3.6 0 0-.58-.65q-1.9-.31-3.56.44-.24-.53-.2-1.13a.66.66 0 0 1 .66-.62h4.37a.63.63 0 0 1 .63.63V101a.5.5 0 0 1-.5.5h-4.94a.55.54 86.4 0 1-.54-.48q-.15-1.2-.21-2.39c-.39-7.25-13.3-7.96-12.05.79q.3 2.02 2.19 2.82l12.21 5.12q2.58 1.09 3.64 3.68c5.35 13.18-10.15 21.86-19.23 12.73q-.87-.87-.57.32l.4 1.61a.84.83 58.7 0 1-.18.76c-.44.53-4.48.31-5.18.16a.55.53 6.9 0 1-.42-.52l-.02-11.9a.45.45 0 0 1 .45-.45h5.13a.54.53 87 0 1 .53.48q.18 1.52.38 3.02c.83 6.05 10.45 7.28 12.43 1.5 3.58-10.45-19.76-5.84-18.76-20.29q.74-10.65 12.98-9.65 3.48.28 5.55 2.44Zm75 30.25q-.18-1.65 1.13-2.53.41-.28.65-.7 5.18-9 1.4-18.93c-3.6-9.47-16.41-12.33-24.42-6.92-7.23 4.88-7.99 16.36-5.35 23.88 3.08 8.79 11 10.3 19.46 9.93a.61.6 83 0 1 .63.5q.04.23-.04.48c-3.79.08-8.04.45-11.47-.8q-8.01-2.92-10.33-11.6c-3.84-14.37 3.94-28.63 20.56-25.77 14.28 2.46 18.26 23.68 7.78 32.46Z"/><path fill="#005289" d="m52.3 122.05-1.42 3.01a.77.76-77 0 1-.69.44h-3.7a.52.51 89.4 0 0-.51.53q.01.38.27.68l-9.72-.04a.53.53 0 0 1-.53-.53v-3.71a.53.53 0 0 1 .51-.53l3.77-.18a.5.49 88.8 0 0 .47-.5V94.25a.5.5 0 0 0-.5-.5H36.5a.5.5 0 0 1-.5-.5v-3.5a.5.5 0 0 1 .5-.5H52a.5.5 0 0 1 .5.5v3.5a.5.5 0 0 1-.5.5h-3.37a.62.62 0 0 0-.62.62l-.04 26.81a.51.51 0 0 0 .47.51l3.86.36Zm58.14-.2 4.35.2a.48.48 0 0 1 .46.48v3.74a.48.48 0 0 1-.48.48H98.23a.48.48 0 0 1-.48-.48v-3.76a.48.48 0 0 1 .44-.47l4.41-.35a.48.48 0 0 0 .45-.48l-.27-26.73a.48.48 0 0 0-.48-.48l-4.82.06a.48.48 0 0 0-.48.48v6.98a.48.48 0 0 1-.48.48h-5.04a.48.48 0 0 1-.48-.48V89.73a.48.48 0 0 1 .48-.48h30.28a.48.48 0 0 1 .48.49l-.28 11.77a.48.48 0 0 1-.48.47l-5 .03a.48.48 0 0 1-.48-.48v-7.05a.48.48 0 0 0-.48-.48l-4.92-.01a.48.48 0 0 0-.48.48l-.14 26.9a.48.48 0 0 0 .46.48Zm79.31-31.89q-.53.05-.67.35a.51.51 0 0 0 .29.69c5.14 1.91 6.64 9.38 3 13.3a1.73 1.67 12.9 0 1-.81.49q-1.45.37-1.81 1.75l-.25.23a.31.31 0 0 0 0 .46l.54.52-.19.28a.41.41 0 0 0 .18.6c9.05 4.12 6.39 16.22-3.21 16.68q-9.62.45-19.31-.02a.59.59 0 0 1-.56-.53q-.17-1.48.55-2.72l2.48-.49q.99-13.41.88-26.85a.58.57 2.8 0 0-.52-.57q-.45-.04-.8.12-1.67-.84-3.67-.52a.54.53 85.4 0 1-.62-.53v-3.3a.64.63 0 0 1 .64-.63c6.82-.03 17.55-1.19 23.86.69ZM181 105.04l-.1 1.49a.46.45 86.6 0 0 .53.48q7.32-1.42 8.27-8.7a.66.66 0 0 0-.48-.72q-.56-.15-.93.16c-1.4-4.9-6.99-4.1-10.95-4a.57.57 0 0 0-.55.56l-.18 9.96a.59.59 0 0 0 .57.6l3.82.17Zm-4.75 16.54 7.93.3q1.02 1.73 2.89-.09c2.27-2.22 4.23-4.67 3-7.99-1.91-5.11-6.79-6.04-12.18-5.63a1.26 1.23-72.2 0 0-.87.46l-1.18 1.5a1.3 1.29-28 0 0-.28.91l.69 10.54Z"/><path fill="#fff" d="m198.8 94.59.73-.76a.73.73 0 0 1 1.07.03l.93 1.09a.51.51 0 0 1-.25.82c-2.07.6-4.64-.21-4.65-2.73-.01-6.77 9.72-2.89 6.07 1.47q-.59.7-.71-.21l-.35-2.67a1.49 1.41-73.2 0 0-.42-.84q-1.28-1.24-2.71.27a1.21 1.19-22.6 0 0-.34.81l-.06 2.43q-.03 1.02.69.29Z"/><path fill="#005289" d="M78.79 91.25q.82.53 1.25-.25 1.66-.75 3.56-.44a.69.68 3.6 0 1 .58.65l.34 8.28a.59.59 0 0 1-.55.62l-2.55.18a.67.65 83.5 0 1-.7-.57q-1.18-8.16-9.35-7.82-3.02.13-4.24 2.9c-5.19 11.76 14.26 9.21 17.43 17.4 2.13 5.5-.02 11.97-6.02 13.51-3.67.95-8.83.96-10.97-2.75a.56.55-22.5 0 0-.62-.25l-1.73.5a.91.89 89.5 0 0-.62.64q-.5 2.01-2.76 1.29a.62.61-83.9 0 1-.44-.55l-.57-8.59a1 1 0 0 1 .35-.84q1.85-1.53 4.03-.53a.86.86 0 0 1 .5.81c-.43 9.73 11.1 10.87 14.33 3.48q1.04-2.39-.41-4.55c-2.99-4.48-11.3-5.96-14.57-7.64-4.25-2.17-4.6-9.23-2.5-12.82 3.11-5.29 10.23-5.15 15.05-2.31q.75.44 1.18-.35Zm75 30.25q-.34.19-.41.48a.38.37 4.4 0 0 .4.46l7.14-.55a.54.54 0 0 1 .58.54v4.04a.53.53 0 0 1-.52.53l-13.73.21q.08-.25.04-.48a.61.6 83 0 0-.63-.5c-8.46.37-16.38-1.14-19.46-9.93-2.64-7.52-1.88-19 5.35-23.88 8.01-5.41 20.82-2.55 24.42 6.92q3.78 9.93-1.4 18.93-.24.42-.65.7-1.31.88-1.13 2.53ZM143.5 93.21h-2.25q.11-.31.01-.61a.62.62 0 0 0-.7-.41c-10.31 1.99-10.62 16-8.37 23.69 2.64 9 12.74 11.12 18.14 3.25q2.34-3.42 1.96-7.9l-.5-6.98.65-.28a.7.69 74.4 0 0 .41-.73q-1.04-7.71-7.87-11.08a.92.91-50.9 0 0-.98.11q-.46.38-.5.94Z"/><path fill="#002e71" d="M189.75 89.96c7.52 2.73 8.2 14.07 0 16.58q.36-1.38 1.81-1.75a1.73 1.67 12.9 0 0 .81-.49c3.64-3.92 2.14-11.39-3-13.3a.51.51 0 0 1-.29-.69q.14-.3.67-.35Zm-37.96 14.29c-.58-4.93-2.97-9.94-8.29-11.04q.04-.56.5-.94a.92.91-50.9 0 1 .98-.11q6.83 3.37 7.87 11.08a.7.69 74.4 0 1-.41.73l-.65.28Zm-10.54-11.04c-10.47 1.68-10.23 16.25-7.49 23.47 2.6 6.83 10.82 8.2 15.1 2.06q2.3-3.29 3.43-7.51.38 4.48-1.96 7.9c-5.4 7.87-15.5 5.75-18.14-3.25-2.25-7.69-1.94-21.7 8.37-23.69a.62.62 0 0 1 .7.41q.1.3-.01.61Z"/><path fill="#fff" d="M141.25 93.21h2.25c5.32 1.1 7.71 6.11 8.29 11.04l.5 6.98q-1.13 4.22-3.43 7.51c-4.28 6.14-12.5 4.77-15.1-2.06-2.74-7.22-2.98-21.79 7.49-23.47Zm47.04 4.54q.69 7.76-7.29 7.29l-3.82-.17a.59.59 0 0 1-.57-.6l.18-9.96a.57.57 0 0 1 .55-.56c3.96-.1 9.55-.9 10.95 4Z"/><path fill="#002e71" d="M169.98 121.55q-.87-13.71-.44-27.3.35-.16.8-.12a.58.57 2.8 0 1 .52.57q.11 13.44-.88 26.85ZM181 105.04q7.98.47 7.29-7.29.37-.31.93-.16a.66.66 0 0 1 .48.72q-.95 7.28-8.27 8.7a.46.45 86.6 0 1-.53-.48l.1-1.49Z"/><path fill="#002e71" d="M190.04 107.75c10 3.68 7.57 16.96-2.62 18.69q-4.3.73-21.63.22a.52.52 0 0 1-.51-.52l.06-3.63a.66.66 0 0 1 .58-.64q.82-.1 1.58.17-.72 1.24-.55 2.72a.59.59 0 0 0 .56.53q9.69.47 19.31.02c9.6-.46 12.26-12.56 3.21-16.68a.41.41 0 0 1-.18-.6l.19-.28Z"/><path fill="#002e71" d="M184.18 121.88q5.91-1.38 5.05-7.16c-.85-5.76-7.06-5.22-12.09-4.84a.56.55-1.2 0 0-.51.53l-.38 11.17-.69-10.54a1.3 1.29-28 0 1 .28-.91l1.18-1.5a1.26 1.23-72.2 0 1 .87-.46c5.39-.41 10.27.52 12.18 5.63 1.23 3.32-.73 5.77-3 7.99q-1.87 1.82-2.89.09Z"/><path fill="#fff" d="m184.18 121.88-7.93-.3.38-11.17a.56.55-1.2 0 1 .51-.53c5.03-.38 11.24-.92 12.09 4.84q.86 5.78-5.05 7.16Z"/><path fill="#002e71" d="m52.3 122.05.11 3.99a.56.56 0 0 1-.55.58l-5.61.09q-.26-.3-.27-.68a.52.51 89.4 0 1 .51-.53h3.7a.77.76-77 0 0 .69-.44l1.42-3.01Z"/><rect width="2.02" height="14.66" x="-1.01" y="-7.33" fill="#002e71" rx=".5" transform="rotate(.1 -81210.435 105787.366)"/><path fill="#002e71" d="m218.49 139.15.75.16a.7.7 0 0 1 .57.69v.35a.65.65 0 0 1-.66.65h-.52a.62.62 0 0 0-.63.62v6.95a.57.56-3.4 0 1-.5.56l-1.08.13a.6.59-3.4 0 1-.67-.59v-6.97a.62.62 0 0 0-.35-.56l-1.01-.49a.62.62 0 0 1-.23-.92q.48-.65 1.25-.49a.42.42 0 0 0 .5-.46c-.38-3.19.22-5.01 4.26-4.11a.44.44 0 0 1 .33.56q-.38 1.3-1.86 1.13a.68.67-86.3 0 0-.76.67l.01 1.4a.75.73 5.8 0 0 .6.72Zm-70.72-1.79q-1.65-.01-.84-1.91a.75.74 11.2 0 1 .69-.46l.62.01a.76.76 0 0 1 .76.74l.01.36a1.23 1.23 0 0 1-1.24 1.26Z"/><path fill="#d31145" d="m61.27 135.38 6.46.14a.55.55 0 0 1 .49.77q-8.48 19.22-11.25 40.07a.18.18 0 0 1-.23.14l-.25-.08a.12.11 12.6 0 1-.07-.1q.31-20.5 4.4-40.58a.45.44 6.1 0 1 .45-.36Z"/><rect width="2.26" height="13.74" x="-1.13" y="-6.87" fill="#002e71" rx=".6" transform="rotate(.1 -81538.02 45552.568)"/><path fill="#002e71" d="M196.57 147.33a2.39 2.35-51.1 0 0 1.64-.19c3.83-1.97-3.39-4.81-3.98-6.88q-1.03-3.57 4.11-5.3 2.07-.7 2.66 1.4.1.36-.01.84a.62.62 0 0 1-.66.48l-2.95-.25a.74.73-83.2 0 0-.78.62l-.25 1.51a.75.74 17.3 0 0 .42.79c13.2 6.24-3.36 12.09-2.56 6.96a.49.48-79 0 1 .59-.4l1.77.42Zm-98.94-8.16 1.39.26a.55.55 0 0 1 .38.8q-.51.96-1.6.77a.47.47 0 0 0-.55.46v4.74a.98.98 0 0 0 .48.86l1.32.8q1.12.67-.1 1.14c-4.89 1.89-4.03-4.89-3.97-7.31a.59.58-78.6 0 0-.37-.56l-1.09-.43a.66.66 0 0 1-.3-1q.53-.76 1.55-.34.99.41.51-.55l-.36-.72a.74.73-23.2 0 1 .41-1.02l1.45-.5q.94-.33.75.65l-.27 1.39a.47.47 0 0 0 .37.56Zm44.33.08-.5.39a.54.54 0 0 1-.73-.07l-.52-.57q-.36-2.19 1.47-2.41a.55.54 81.9 0 1 .61.46q.17 1.11-.33 2.2Zm83.04 2.11v5.3a.53.52-84.8 0 0 .42.52l1.58.32q2.01.41.17 1.31c-5.4 2.65-4.53-4.44-4.28-6.92a.76.76 0 0 0-.47-.77l-.96-.38q-.97-.39-.11-.99l1-.7a.88.88 0 0 0 .38-.78q-.12-1.78 1.98-1.69a.55.55 0 0 1 .52.65l-.3 1.49a.42.42 0 0 0 .36.5l1.54.18q1.38.17.33 1.08-.74.64-1.77.53a.35.35 0 0 0-.39.35Z"/><path fill="#005289" d="m140.21 139 .52.57a.54.54 0 0 0 .73.07l.5-.39.29.29q-.21 1.12-1.12 1.04a.94.93-10.3 0 1-.75-.51l-.42-.82.25-.25Z"/><path fill="#002e71" d="M86.1 140.5q1.09-1.62 3.17-1.21 2.11.42 2.15 2.57l.12 6.58a.81.81 0 0 1-.57.79c-2.89.91-1.63-5.53-1.92-7.24a.98.95 8.5 0 0-.55-.72c-3.74-1.76-2.74 5.79-2.89 7.45a.65.63-1.7 0 1-.56.58c-1.23.16-1.64-.52-1.49-1.67q.48-3.9-.04-7.71a.58.58 0 0 1 .41-.64q1.3-.36 1.55 1.09.15.84.62.13Zm17.26 4.88c-.01 2.72 3.06 2.07 4.68 1.91a.53.52-5.4 0 1 .58.47c.23 2.51-7.16 2.49-7.66-3.86q-.19-2.44 1.82-3.84c3.26-2.27 6.63.51 6.3 4.17a.58.57-87.2 0 1-.57.52H104a.64.63 0 0 0-.64.63Zm3.54-2.88c-.72-2.29-3.12-2.48-3.64.09a.55.55 0 0 0 .54.66h2.56a.57.57 0 0 0 .54-.75Zm7.36-2.28q.49-.97 1.46-1a.72.72 0 0 1 .75.69l.02.42a.71.7 76.2 0 1-.4.67l-1.82.89a.94.94 0 0 0-.52.84v5.89a.63.62-90 0 1-.62.63h-.97a.61.61 0 0 1-.61-.6l-.16-8.84a.55.55 0 0 1 .55-.56h.71a.57.57 0 0 1 .57.55q.02.46.37.64a.5.49 26.6 0 0 .67-.22Zm7.04.11.65-.64a1.55 1.55 0 0 1 .89-.44c4.74-.71 3.35 6.51 3.57 9.23a.63.63 0 0 1-.63.68h-1.22a.54.54 0 0 1-.55-.54l-.03-6.6a1.04 1.04 0 0 0-1.1-1.03c-2.78.13-1.9 5.62-1.86 7.46a.69.69 0 0 1-.63.7l-1.23.12a.62.61-2.6 0 1-.67-.61l.02-8.32a1.12 1.12 0 0 1 1.15-1.12q.85.01.96.87.1.81.68.24Zm12.76-.89c3.24 1.02 2.17 6.56 2.38 9.32q.07.95-.74.46l-1.28-.77a.69.68 45.4 0 0-.68-.01c-2.61 1.4-5.06 1.07-5.26-2.5q-.12-2.21 2.07-2.54l3.43-.52a.49.48-5.2 0 0 .42-.5c-.1-2.45-3.25-1.38-4.59-1.13q-.83.15-.54-.65l.29-.79q.58-1.61 4.5-.37Zm-2.96 7.83q2.38.81 3.19-1.28a1.13 1.12 10.7 0 0-1.05-1.53q-1.52-.02-2.55.96a1.11 1.1 32.6 0 0 .41 1.85Zm8.86-8.02.42.82a.94.93-10.3 0 0 .75.51q.91.08 1.12-1.04c.68-.47 2.29-.45 2.15.58a.7.69-3.8 0 1-.51.58l-1.22.34a.57.56 82.8 0 0-.42.55v5.2a.56.56 0 0 0 .48.55l1.22.17a.58.58 0 0 1 .43.85q-.86 1.59-2.95.63a2.02 2 12.5 0 1-1.16-1.8l-.03-5.7a.47.47 0 0 0-.34-.45l-1.38-.41q-1.3-.38-.15-1.09.67-.41 1.59-.29Z"/><path fill="#000a25" d="M155.809 149.32a5.12 4.28 90.8 0 1-4.209-5.18 5.12 4.28 90.8 0 1 4.352-5.06 5.12 4.28 90.8 0 1 4.208 5.18 5.12 4.28 90.8 0 1-4.351 5.06Zm.065-1.73a3.43 2.19 89.6 0 0 2.166-3.445 3.43 2.19 89.6 0 0-2.214-3.415 3.43 2.19 89.6 0 0-2.166 3.445 3.43 2.19 89.6 0 0 2.214 3.415Z"/><path fill="#002e71" d="M165.78 140.04q.97-1.45 3.16-.43 1.55.72 1.55 2.43l.02 6.64a.61.61 0 0 1-.7.6l-1.29-.2a.69.69 0 0 1-.57-.83q.78-3.33-.12-6.58a.86.86 0 0 0-.74-.62c-3.07-.34-2.12 5.82-1.94 7.48a.6.6 0 0 1-.56.67l-1.16.06a.6.59 87.6 0 1-.62-.58l-.22-8.79a.6.6 0 0 1 .57-.61l.85-.05a.65.65 0 0 1 .68.59q.05.54.4.56a.78.77-70.8 0 0 .69-.34Zm12.22 1.13a.93.92-20.8 0 0-1.35-.6q-1.53.85-3.11.44-1.59-.41-.11-1.12 3.69-1.78 6.33.63a1.31 1.3 20.1 0 1 .43.92l.31 7.3a.54.53 10.7 0 1-.76.51l-1.43-.64a.96.95 42.6 0 0-.84.03q-3.14 1.77-4.83-1.29-1.15-2.09.89-3.33 1.96-1.19 4.28-1.01a.46.45-4.6 0 0 .48-.56l-.29-1.28Zm-2.63 6.18q1.49.48 2.58-.54a1.02 1.01-22.1 0 0 .31-.73l-.02-1.02a.6.6 0 0 0-.5-.58q-1.66-.26-2.83.85a1.2 1.2 0 0 0 .46 2.02Zm32.903 1.94a5.09 4.41 89.4 0 1-4.463-5.044 5.09 4.41 89.4 0 1 4.357-5.136 5.09 4.41 89.4 0 1 4.463 5.044 5.09 4.41 89.4 0 1-4.357 5.136Zm-.1-1.67a3.45 2.06 91.1 0 0 2.127-3.41 3.45 2.06 91.1 0 0-1.994-3.49 3.45 2.06 91.1 0 0-2.126 3.41 3.45 2.06 91.1 0 0 1.994 3.49Zm30.107-1.32c.47-.09 1.31-5.03 1.49-6.38a.73.73 0 0 1 .71-.62l.94-.02a.52.52 0 0 1 .51.67l-2.41 8.56a.78.77 11.6 0 1-.85.56l-1.15-.17a.87.87 0 0 1-.73-.66l-1.42-6.28q-.33-1.47-.64 0l-1.37 6.68a.67.67 0 0 1-.71.53l-1.19-.1a.93.93 0 0 1-.83-.69l-2.31-8.38a.51.51 0 0 1 .55-.65l1.15.13a.75.75 0 0 1 .64.61l1.01 6.04a.43.42 78.3 0 0 .51.34c.41-.1 1.23-4.61 1.65-6.75a.61.61 0 0 1 .63-.49l1.59.11a.76.76 0 0 1 .7.63l1.03 6a.42.41-10.7 0 0 .5.33Zm10.73-3.81c.15-2.36-3.06-1.46-4.21-1.24a.49.49 0 0 1-.58-.53c.26-2.4 4.93-1.57 5.96-.53 1.72 1.73.99 5.69 1.2 8.19a.76.76 0 0 1-.44.75q-1.09.51-1.67-.59a.62.62 0 0 0-.93-.2q-2.7 2.1-4.77-.7-1.52-2.08.62-3.5 1.92-1.28 4.24-1.14a.54.54 0 0 0 .58-.51Zm-3.5 3.41a1.16 1.16 0 0 0 1.11 1.65q1.79-.08 2.43-1.79a.96.96 0 0 0-.78-1.3q-1.98-.25-2.76 1.44Zm11.2-5.71 1.36-.94a.55.55 0 0 1 .82.23q.56 1.27-.98 2.09-1.72.92-1.67 2.87l.12 4.28a.53.53 0 0 1-.58.54l-1.28-.1a.6.59-88.4 0 1-.55-.59l-.04-8.61a.66.66 0 0 1 .42-.63c.78-.31 1.23-.06 1.57.65a.56.55-30.2 0 0 .81.21Zm6.13 5.1c.36 2.58 3.01 2.29 4.83 1.88a.48.48 0 0 1 .59.48l-.01.33a.82.82 0 0 1-.46.72c-4.67 2.27-8.5-2-6.68-6.64 2.02-5.14 8.11-2.77 7.57 2.08a.71.7-86.8 0 1-.7.63l-4.71.02a.44.43 86 0 0-.43.5Zm.08-2.69a.48.47-79.4 0 0 .44.65h2.35a.63.62-83.2 0 0 .62-.5c.45-2.03-2.31-2.98-3.41-.15Z"/><rect width="2" height="9.64" x="146.75" y="139.49" fill="#000a25" rx=".39"/><path fill="#fff" d="M103.26 142.59c.52-2.57 2.92-2.38 3.64-.09a.57.57 0 0 1-.54.75h-2.56a.55.55 0 0 1-.54-.66Z"/><ellipse fill="#fff" rx="3.43" ry="2.19" transform="rotate(89.6 5.34 150.55)"/><ellipse fill="#fff" rx="3.45" ry="2.06" transform="rotate(91.1 33.406 174.225)"/><path fill="#fff" d="M262.92 142.6c1.1-2.83 3.86-1.88 3.41.15a.63.62-83.2 0 1-.62.5h-2.35a.48.47-79.4 0 1-.44-.65Zm-87.55 4.75a1.2 1.2 0 0 1-.46-2.02q1.17-1.11 2.83-.85a.6.6 0 0 1 .5.58l.02 1.02a1.02 1.01-22.1 0 1-.31.73q-1.09 1.02-2.58.54Zm-44.27-.08a1.11 1.1 32.6 0 1-.41-1.85q1.03-.98 2.55-.96a1.13 1.12 10.7 0 1 1.05 1.53q-.81 2.09-3.19 1.28Zm114.41-1.37q.78-1.69 2.76-1.44a.96.96 0 0 1 .78 1.3q-.64 1.71-2.43 1.79a1.16 1.16 0 0 1-1.11-1.65Z"/><path fill="#002e71" d="M191.44 160.11c.77-.09 1.94.26 1.56 1.34a.78.76-82.2 0 1-.66.51l-.82.06a.6.59 88 0 0-.55.6l.04 7.02a.62.62 0 0 1-.64.62l-.95-.04a.58.58 0 0 1-.56-.6l.19-6.72a.85.84 7 0 0-.67-.85l-.9-.19a.65.64 14.7 0 1-.49-.82q.33-1.11 1.47-1.05a.46.45-1.1 0 0 .48-.49c-.28-2.62.68-4.68 3.81-3.95a.86.86 0 0 1 .66.92q-.11 1.32-1.54.99a.63.62-81.7 0 0-.76.57l-.14 1.64a.42.41-1.2 0 0 .47.44Z"/><rect width="2.04" height="14.46" x="-1.02" y="-7.23" fill="#000a25" rx=".27" transform="rotate(.1 -93302.837 102365.9)"/><rect width="2.22" height="2.56" x="-1.11" y="-1.28" fill="#002e71" rx=".67" transform="rotate(2.7 -3236.232 4245.122)"/><ellipse fill="#002e71" rx="1.37" ry="1.21" transform="rotate(80.9 21.671 212.116)"/><path fill="#002e71" d="m311.78 160.43-.12-4.12a.52.52 0 0 1 .52-.53h1.22a.61.61 0 0 1 .61.66c-.13 1.59-.14 13.41-.28 13.58q-.2.22-.5.28a.87.87 0 0 1-.83-.26l-.52-.53a.5.5 0 0 0-.6-.1l-1.93.98a.87.85-40.4 0 1-.89-.06c-4.83-3.39-2.78-12.94 2.86-9.62q.48.28.46-.28Zm-2.008 8.13a3.39 2.01 89.8 0 0 1.998-3.397 3.39 2.01 89.8 0 0-2.022-3.383 3.39 2.01 89.8 0 0-1.998 3.397 3.39 2.01 89.8 0 0 2.022 3.383Z"/><rect width="2.76" height="2.52" x="-1.38" y="-1.26" fill="#002e71" rx=".76" transform="rotate(-2.7 3392.352 -2316.542)"/><rect width="2.48" height="2.48" x="-1.24" y="-1.24" fill="#002e71" rx=".83" transform="rotate(3.2 -2722.117 3371.719)"/><path fill="#002e71" d="M151.62 169.28a.67.67 0 0 0-.08 1.11l1.74 1.35q.75.58-.16.86c-3.16.94-2.46-2.64-5.39-2.41a1.37 1.35-29.6 0 1-.89-.24q-4.44-3.13-3.15-8.73c1.45-6.33 9.34-6.23 10.04.37.24 2.3.34 6.32-2.11 7.69Zm-2.781-.7a5.1 2.95 89.9 0 0 2.941-5.105 5.1 2.95 89.9 0 0-2.959-5.095 5.1 2.95 89.9 0 0-2.941 5.105 5.1 2.95 89.9 0 0 2.959 5.095ZM82.5 159.17v10.66a.42.42 0 0 1-.42.42h-1.66a.42.42 0 0 1-.42-.42v-10.66a.42.42 0 0 0-.42-.42h-2.17a.42.42 0 0 1-.42-.44l.05-1.16a.42.42 0 0 1 .42-.4h7.63a.42.42 0 0 1 .42.44l-.05 1.15a.42.42 0 0 1-.42.4l-2.12.01a.42.42 0 0 0-.42.42Zm184.75 10.06v-11.94a.51.5 88.8 0 1 .48-.51c3.46-.18 8.51-.36 7.3 4.32a1.58 1.52 79.9 0 1-.57.85l-1.12.84a.46.46 0 0 0 .06.77l1.11.59a1.46 1.45 4.1 0 1 .67.77c1.87 5.06-4.39 5.87-7.92 5.16a.33.33 0 0 1-.25-.4q.03-.12.13-.21a.32.3 71.6 0 0 .11-.24Zm5.4-8.42a1.51 1.51 0 0 0-1.03-1.96l-1.39-.37a.58.58 0 0 0-.73.56v2.6a.57.56 8.3 0 0 .41.54q2.06.59 2.74-1.37Zm.34 5.74q.77-1.86-1.23-2.12l-1.7-.22a.5.49 3.6 0 0-.56.49v3a.54.54 0 0 0 .46.53q2.19.34 3.03-1.68Zm-50.3 1.72 1.31.34a.62.61-84 0 1 .47.59c.01.41-.32.84-.75.97-4.68 1.41-3.41-5.02-3.52-7.31a.74.73-76.5 0 0-.36-.6l-1.53-.95q-1-.62.15-.87l1.02-.21a.7.69 83.2 0 0 .55-.71q-.04-1.67 1.73-1.81a.54.54 0 0 1 .59.58l-.12 1.51a.45.45 0 0 0 .58.46q1.12-.34 1.68.6a.64.63 69.2 0 1-.42.95l-1.39.26a.54.53-6 0 0-.43.52v5.11a.59.58-83.1 0 0 .44.57Zm-114.77-.06 1.42.38q2.09.56.1 1.39c-5.48 2.28-4.13-4.63-4.25-7.2a.72.7 14.3 0 0-.37-.6l-1.28-.7q-.9-.49.04-.89 1.44-.63 1.79-2.12a.86.85-85.5 0 1 .78-.67l.85-.05a.48.48 0 0 1 .51.5l-.05 1.51a.41.4-87 0 0 .37.42l1.42.09a.64.64 0 0 1 .54.89q-.48 1.12-1.72.83a.47.47 0 0 0-.57.46v5.22a.56.56 0 0 0 .42.54Z"/><ellipse fill="#fff" rx="5.1" ry="2.95" transform="rotate(89.9 -7.468 156.285)"/><path fill="#fff" d="M272.65 160.81q-.68 1.96-2.74 1.37a.57.56 8.3 0 1-.41-.54v-2.6a.58.58 0 0 1 .73-.56l1.39.37a1.51 1.51 0 0 1 1.03 1.96Z"/><path fill="#002e71" d="M87.88 166.68c.21 2.2 2.68 1.9 4.65 1.62a.46.46 0 0 1 .52.46q0 .92-1.05 1.22c-7.17 2.04-9.01-7.76-2.91-9.89a1.49 1.47 43.3 0 1 .89-.02q3.72 1.04 3.51 5.1a.69.69 0 0 1-.65.64l-4.43.26a.56.56 0 0 0-.53.61Zm3.57-2.8c.32-2.45-2.57-3.44-3.59-.32a.72.71-81.2 0 0 .68.94h2.2a.72.71 3.6 0 0 .71-.62Zm8.04 4.31q1.16-.47.15-1.21c-2.79-2.04-6.99-4.26-1.08-7.31q2.1-1.08 2.86 1.15.16.45.07.89a.54.54 0 0 1-.69.41q-1.4-.43-2.72-.01-1.55.5-.21 1.41l3.33 2.28q1.86 1.27.39 2.97c-1.26 1.46-6.9 2.79-6.02-.46a.54.53-67.8 0 1 .78-.33q1.53.86 3.14.21Zm23.83-7.73a2.48 2.48 0 0 1 1.14 2.05l.15 7.18a.55.55 0 0 1-.55.56H123a.5.49 90 0 1-.49-.5l-.03-6.97a.8.78 3.3 0 0-.71-.78c-3.57-.39-2.54 5.57-2.54 7.73a.52.51-90 0 1-.51.52h-1.47a.5.5 0 0 1-.5-.5v-9.02a.61.61 0 0 1 .8-.58l1.45.48a1.69 1.65-52.1 0 0 1.46-.2q1.37-.92 2.86.03Zm9.99 8.65c-6.62 4.96-8.24-8.55-2.58-9.1a1.13 1.1-27.2 0 1 .81.25l1.18.98a.57.56 38.1 0 0 .81-.09c.33-.44.66-1.34 1.42-1.05a.72.71-77.3 0 1 .45.72c-.27 4.46 2.17 16.02-6.74 13.18q-1.28-.4-1.05-1.58a.46.45 13.9 0 1 .59-.35c2.76.92 5.21.88 5.47-2.76q.04-.49-.36-.2Zm-1.17-7.02q-1.87-2-2.44.67-.5 2.28.02 4.6.59 2.67 2.45.67 2.75-2.94-.03-5.94Z"/><path fill="#000a25" d="M172.29 163.67c.28-2.26-2.55-2.27-3.93-1.38a.63.63 0 0 1-.84-.15l-.24-.31a.67.66-32.7 0 1 .22-.99c8.04-4.29 6.55 5.04 6.92 8.78a.57.55 79.3 0 1-.39.59q-1.12.35-1.59-.53a.44.44 0 0 0-.65-.15c-5.1 3.68-8.55-5.92-.07-5.39a.53.53 0 0 0 .57-.47Zm-2.16 4.98a1.53 1.52 14.8 0 0 1.65-.95l.54-1.4a.59.59 0 0 0-.44-.79c-2.77-.49-5.12 2.64-1.75 3.14Z"/><rect width="2.08" height="10.12" x="-1.04" y="-5.06" fill="#002e71" rx=".48" transform="rotate(.4 -23560.619 28198.942)"/><path fill="#002e71" d="M206.27 162.08c-4.8-2.2-5.31 7.9 0 6.19a.53.53 0 0 1 .69.48l.04.73a.7.7 0 0 1-.55.72c-8.1 1.81-8.41-11.01-.83-10.18 1.03.11 1.73.77 1.31 1.8a.49.49 0 0 1-.66.26Zm7.99 1.37c.03-2.24-2.9-1.87-4.12-1.1a.56.55-35.4 0 1-.74-.12c-1.43-1.8 4.29-3.73 6.49-.47a1.76 1.75-62.7 0 1 .3.95l.19 7.21a.41.41 0 0 1-.58.39l-1.6-.72a.71.7-50.4 0 0-.72.07c-4.65 3.39-8.22-5.88.25-5.7a.52.52 0 0 0 .53-.51Zm-3.69 3.28a.97.97 0 0 0 .39 1.48q2.45 1.06 3.33-1.39a1.01 1.01 0 0 0-.9-1.35q-1.79-.1-2.82 1.26Zm25.304 3.73a5.25 4.28 90.5 0 1-4.234-5.287 5.25 4.28 90.5 0 1 4.326-5.213 5.25 4.28 90.5 0 1 4.234 5.287 5.25 4.28 90.5 0 1-4.326 5.213Zm-.04-1.82a3.5 2.14 90.1 0 0 2.146-3.496 3.5 2.14 90.1 0 0-2.134-3.504 3.5 2.14 90.1 0 0-2.146 3.496 3.5 2.14 90.1 0 0 2.134 3.504Z"/><path fill="#002e71" d="m245.51 160.97.92-.71a1.37 1.37 0 0 1 .91-.3c4.29.14 3.21 6.83 3.15 9.65a.67.67 0 0 1-.68.65l-1.24-.04a.59.59 0 0 1-.56-.69c.44-2.5.85-7.6-1.56-7.49a1.49 1.49 0 0 0-1.43 1.48l-.03 6.23a.5.5 0 0 1-.5.5h-1.24a.53.52 88.9 0 1-.53-.52l-.1-9.12a.61.61 0 0 1 .73-.61q.85.17 1.43.89a.53.52 50.9 0 0 .73.08Zm9.5 2.36 3.13 2.28a1.73 1.72 8.3 0 1 .63.84q.99 2.81-2.86 4.31-2.55.99-3.33-1.62-.08-.25-.09-.51a.54.54 0 0 1 .64-.55c1.04.2 3.31 1.03 3.77-.53a.71.71 0 0 0-.33-.82l-2.97-1.66q-2.49-1.41-.57-3.53c1.38-1.51 7.01-2.72 5.33.45a.54.53 29.1 0 1-.75.21q-1.33-.8-2.59.1a.64.63-44.5 0 0-.01 1.03Zm26.935 7.09a5.25 4.44 90.6 0 1-4.385-5.296 5.25 4.44 90.6 0 1 4.495-5.204 5.25 4.44 90.6 0 1 4.385 5.297 5.25 4.44 90.6 0 1-4.495 5.203Zm.161-1.76a3.49 1.9 89.4 0 0 1.864-3.51 3.49 1.9 89.4 0 0-1.937-3.47 3.49 1.9 89.4 0 0-1.863 3.51 3.49 1.9 89.4 0 0 1.936 3.47Z"/><path fill="#002e71" d="M293.98 163.51c.02-2.42-2.69-1.75-3.98-1.15a.5.49-14.7 0 1-.71-.41l-.04-.62a.77.77 0 0 1 .43-.75q3.62-1.75 5.87.94a1.67 1.65 24.3 0 1 .39 1.01l.2 7.26a.5.49 11.4 0 1-.7.46l-1.57-.69a.69.66 38.4 0 0-.65.06q-2.34 1.66-4.27-.54-1.79-2.03.27-3.8 1.79-1.53 4.18-1.26a.52.52 0 0 0 .58-.51Zm.08 2.8q.29-.2.09-.66a.74.74 0 0 0-.92-.43q-3.27 1.1-2.69 2.56a1.42 1.41 63.6 0 0 2.04.69q1.3-.79 1.48-2.16Zm7.48-5.08 1.46-1.33q.8-.72.89.35l.11 1.14a.68.67 77.4 0 1-.43.69l-1.52.58a.87.85 79.8 0 0-.55.81v6.28a.5.5 0 0 1-.5.5h-1.36a.62.62 0 0 1-.62-.61l-.08-8.85a.78.77-90 0 1 .77-.78q1.12 0 1.33 1.05.1.53.5.17Z"/><rect width="2.52" height="9.94" x="-1.26" y="-4.97" fill="#002e71" rx=".46" transform="rotate(.2 -47287.055 32397.417)"/><path fill="#000a25" d="M160.57 168.37c2.43-.83 1.57-5.59 1.49-7.62a.48.48 0 0 1 .48-.5l1.02.01a.8.8 0 0 1 .8.81l-.06 8.6a.56.56 0 0 1-.53.56l-.35.01a.79.78-16.6 0 1-.71-.38l-.39-.69a.49.48 52.2 0 0-.76-.1l-.82.81a1.44 1.42 20.3 0 1-.89.4c-4.28.3-3.09-6.71-3.29-9.39a.6.6 0 0 1 .61-.65l1.08.03a.57.57 0 0 1 .55.56l.11 6.38a1.25 1.25 0 0 0 1.66 1.16Z"/><rect width="2.16" height="9.98" x="-1.08" y="-4.99" fill="#002e71" rx=".34" transform="rotate(.3 -31468.393 35208.677)"/><rect width="2" height="10" x="226.75" y="160.26" fill="#002e71" rx=".31"/><path fill="#fff" d="M87.86 163.56c1.02-3.12 3.91-2.13 3.59.32a.72.71 3.6 0 1-.71.62h-2.2a.72.71-81.2 0 1-.68-.94Zm44.28-1.47q2.78 3 .03 5.94-1.86 2-2.45-.67-.52-2.32-.02-4.6.57-2.67 2.44-.67Z"/><ellipse fill="#fff" rx="3.5" ry="2.14" transform="rotate(90.1 35.494 200.284)"/><ellipse fill="#fff" rx="3.49" ry="1.9" transform="rotate(89.4 57.58 225.105)"/><ellipse fill="#fff" rx="3.39" ry="2.01" transform="rotate(89.8 72.006 238.007)"/><path fill="#fff" d="M272.99 166.55q-.84 2.02-3.03 1.68a.54.54 0 0 1-.46-.53v-3a.5.49 3.6 0 1 .56-.49l1.7.22q2 .26 1.23 2.12Zm-102.86 2.1c-3.37-.5-1.02-3.63 1.75-3.14a.59.59 0 0 1 .44.79l-.54 1.4a1.53 1.52 14.8 0 1-1.65.95Zm40.44-1.92q1.03-1.36 2.82-1.26a1.01 1.01 0 0 1 .9 1.35q-.88 2.45-3.33 1.39a.97.97 0 0 1-.39-1.48Zm83.49-.42q-.18 1.37-1.48 2.16a1.42 1.41 63.6 0 1-2.04-.69q-.58-1.46 2.69-2.56a.74.74 0 0 1 .92.43q.2.46-.09.66Z"/></svg>