<svg version="1.2" xmlns="http://www.w3.org/2000/svg" viewBox="0 0 1546 977" width="1546" height="977"><style>.a{fill:#fff;stroke:#fff;stroke-width:8.6}.b{fill:#c00}</style><path class="a" d="m773 826.5l30.2 22.8c74.6 52.7 162.1 80.3 253 80.3 243.6 0 441.9-198 441.9-441.2 0-243.3-198.3-441.2-441.4-441.2-91 0-178.5 27.6-253.1 79.8l-30.6 23.2-30.6-23.2c-74.6-52.2-162.1-79.8-253.1-79.8-243.5 0-441.4 197.9-441.4 441.2 0 243.2 197.9 441.2 441.4 441.2 91 0 178.5-27.6 253.1-80.3z"/><path  d="m401.8 197.3v591.2h-148.3v-591.2z"/><path  d="m548.8 469.4c0-113.4 77.2-198.4 224.2-272.1h-217.7c-105.2 72-153.5 172.5-153.5 278.6 0 179.8 218.2 313.1 218.2 313.1h238.8c-194.9-100.1-310-208.8-310-319.6z"/><path  d="m773 826.5l-30.6 22.8c-74.6 52.7-162.1 80.3-253.1 80.3-243.5 0-441.9-198-441.9-441.2 0-243.3 198.4-441.2 441.9-441.2 91 0 178.5 27.6 253.1 79.8l30.6 23.2v-59c-83.2-59.6-181.1-91-283.2-91-269.9-0.5-488.9 218.6-488.9 488.2 0 269.1 219 488.2 488.4 488.2 102.6 0 200.5-31.5 283.7-91z"/><path class="b" d="m1334.7 197.3h-561.7v109.9h209.5v481.8h148.3v-481.8h203.9z"/><path class="b" d="m773 826.5l30.2 22.8c74.6 52.7 162.1 80.3 253 80.3 243.6 0 441.9-198 441.9-441.2 0-243.3-198.3-441.2-441.4-441.2-91 0-178.5 27.6-253.1 79.8l-30.6 23.2v-59c83.6-59.6 181.1-91 283.7-91 269.8 0 488.9 219 488.9 488.2 0 269.1-219.1 488.2-488.9 488.2-102.2 0-200.1-31.5-283.7-91z"/></svg>