<svg version="1.2" xmlns="http://www.w3.org/2000/svg" viewBox="0 0 517 818" width="517" height="818">
	<title>wordmark-logo-color-svg</title>
	<style>
		.s0 { fill: #ffffff } 
		.s1 { fill: #dbdbdb } 
		.s2 { fill: #c6c6c6 } 
		.s3 { fill: #3b3b63 } 
		.s4 { fill: #53537a } 
		.s5 { fill: #bc9375 } 
		.s6 { fill: #c49a7e } 
		.s7 { fill: #d8b7a0 } 
		.s8 { fill: #333152 } 
	</style>
	<path id="Layer" class="s0" d="m448.8 215.8h-379.9q0-35.7 103.1-215.8c0 0 9.5 63.3 28.5 190h116l28.5-189.9q103.9 182.4 103.8 215.7z"/>
	<path id="Layer" class="s0" d="m258.3 817.9l-258.3-181.1v-422.9c0 0 95.5-35.3 258.6-35.3 163.1 0 258 35.3 258 35.3v422.8z"/>
	<path id="Layer" class="s1" d="m258.3 792.5l-241.8-168.9v-392.7c0 0 90.4-32.8 241.8-32.8z"/>
	<path id="Layer" class="s2" d="m258.6 198.1h-0.3v594.1l239.8-168.4v-392.9c0 0-88.1-32.8-239.5-32.8z"/>
	<path id="Layer" class="s3" d="m389.1 700.1l-20.3-177.4h-112.1v270.2l1.6 1.5q65.4-44.7 130.8-94.3z"/>
	<path id="Layer" class="s4" d="m127.6 701.5l130.7 92.9v-277.1h-113.2z"/>
	<path id="Layer" class="s5" d="m314.3 649c0 30.4-28.9 45.5-55.4 45.5-26.5 0-55.8-15.1-55.8-45.5"/>
	<path id="Layer" class="s0" d="m258.6 664.8c-21.3 0-31.6-15.4-31.6-47.1h10.1c0 37.1 14.5 37.1 21.5 37.1 6.9 0 21.4 0 21.4-37.1h10.2c0 31.7-10.3 47.1-31.6 47.1z"/>
	<path id="Layer" class="s6" d="m258.3 625.4c1.3 3.9 3.2 7.6 5.7 10.9 2.5 3.2 5.5 6.1 8.9 8.3 3.4 2.3 7.2 4 11.2 5.1 4 1.1 8.1 1.5 12.2 1.2 5.1 0 10.1-0.7 15-2.2 4.8-1.5 9.4-3.8 13.5-6.7 4.1-3 7.8-6.6 10.8-10.7 3-4.1 5.3-8.6 6.9-13.5 12.2-32.9 12.1-78.7 12.1-78.7 0 0 54.2-67 54.2-89.3h-150.6z"/>
	<path id="Layer" class="s7" d="m105.7 449.7c0 26.2 53.7 89.3 53.7 89.3 0 0 0 45.8 12.1 78.7 1.5 4.9 3.9 9.4 6.9 13.5 3 4.1 6.6 7.7 10.8 10.6 4.1 3 8.7 5.3 13.5 6.8 4.9 1.5 10 2.2 15 2.2 4.3 0.1 8.5-0.3 12.7-1.4 4.1-1.1 8-2.8 11.6-5 3.6-2.3 6.8-5.1 9.6-8.3 2.8-3.2 5-6.9 6.7-10.8v-175.6z"/>
	<path id="Layer" class="s3" d="m402.3 299.3c-41.8-42.2-52.2-130.1-52.2-130.1-7.8 27.9-24.8 109.4-24.8 109.4q-8.3-2.5-16.7-4.4-8.5-2-17.1-3.3-8.5-1.4-17.2-2.1-8.6-0.8-17.3-1-1.7 0 0 330.3l33.5-24 6.4-116.6 36 40.4 46.3 13.3 17.3-12.1q1.9-2.7 3.5-5.5 1.7-2.8 3.2-5.7 1.4-2.9 2.7-6 1.2-3 2.2-6.1c6.5-16.2-8-141.1-8-141.1-5.1-10.4 2.2-35.4 2.2-35.4z"/>
	<path id="Layer" class="s4" d="m192.1 278.6c0 0-16.7-81.7-24.7-109.5 0 0-10.4 88-52.2 130.2 0 0 7.3 25 2.2 35.6 0 0-14.4 124.7-8 141q1 3.1 2.2 6.2 1.2 3 2.7 5.9 1.5 3 3.1 5.8 1.7 2.8 3.6 5.5l17.3 12.1 46.3-13.4 35.9-40.5 6.3 116.6 31.5 23.4v-330.1q-8.4 0.1-16.8 0.9-8.4 0.7-16.7 2.1-8.3 1.4-16.5 3.5-8.2 2-16.2 4.7z"/>
	<path id="Layer" fill-rule="evenodd" class="s8" d="m373.1 87.6c6.9 12.9 66.5 130.3 66.5 171.1l-26.5 70.9c4.5 40 13.4 126.9 6.7 143.8-4.2 10.5-20 32.2-33.5 49.6l18.5 166.1-25 17.7-13.9-121.4q-0.7 4.8-1.6 9.5-0.9 4.7-2 9.4-1.2 4.7-2.6 9.3-1.3 4.6-2.9 9.1-1.9 5.5-4.8 10.5-2.8 5-6.6 9.4-3.7 4.5-8.2 8.1-4.5 3.7-9.5 6.5c-0.7 37.5-35.8 57.7-68.8 57.7-33.1 0-68.7-20.2-69.5-57.7q-5.1-2.8-9.6-6.4-4.4-3.7-8.2-8.1-3.7-4.5-6.6-9.5-2.9-5-4.8-10.5-1.5-4.4-2.8-8.8-1.3-4.4-2.5-8.9-1.1-4.5-2-9-0.9-4.5-1.6-9.1l-13.3 122.1-25.1-18 18.1-167.4c-13.6-17.5-29.7-39.5-33.9-50.2-6.7-16.7 1.8-103.8 6.4-143.8l-27.9-73.4v-2.4c0-40.7 61.3-153.4 68-166.2l19.8-35.7q18.1 124.1 18.1 124.3l9.8 66.9 12.7 20.8q6.6-2.3 13.3-4 6.7-1.8 13.6-3 6.8-1.2 13.7-1.9 6.9-0.7 13.9-0.9 6.9 0.2 13.9 0.9 6.9 0.7 13.8 1.9 6.8 1.2 13.6 3 6.7 1.7 13.3 4l12.8-20.8 27.9-191.3zm-114.2 600.6c14.6 0 35.4-6.5 40.6-23.8h-1.6q-1 0-2 0-1-0.1-2.1-0.2-1 0-2-0.1-1-0.2-2-0.3c-1.8 2.3-4 4.4-6.3 6.1-2.4 1.8-4.9 3.3-7.6 4.5-2.8 1.1-5.6 2-8.5 2.5-2.9 0.4-5.9 0.6-8.8 0.3-3 0.3-5.9 0.1-8.8-0.3-2.9-0.5-5.7-1.3-8.4-2.5-2.7-1.2-5.3-2.7-7.6-4.4-2.4-1.8-4.5-3.9-6.3-6.1q-1.1 0.1-2.1 0.2-1 0.2-2 0.2-1 0.1-2 0.2-1.1 0-2.1 0h-1.6c5.2 17.2 26.4 23.7 41.2 23.7zm-17.1-28.4c2.4 1.7 5.1 3 8 3.9 2.8 0.8 5.8 1.3 8.7 1.3 3 0 5.9-0.5 8.8-1.3 2.8-0.9 5.5-2.2 7.9-3.9q-1.2-0.5-2.5-1.2-1.3-0.6-2.5-1.3-1.2-0.7-2.4-1.5-1.2-0.7-2.3-1.5-0.9 0.2-1.7 0.3-0.9 0.2-1.8 0.3-0.9 0.1-1.8 0.1-0.9 0-1.7 0-0.9 0-1.8 0-0.9 0-1.8-0.1-0.9-0.1-1.8-0.3-0.9-0.1-1.7-0.3-1.1 0.8-2.3 1.5-1.2 0.8-2.4 1.5-1.2 0.7-2.4 1.3-1.2 0.7-2.5 1.2zm103.8-128.8c18.3-21.9 45-57.3 49-67.2 2.7-10.2-2.1-77.8-8.4-134.6l-0.3-3.2 5.5-14c-17.4-18.4-29.6-43.5-38-67.2l-1.1 7.4-27.5 44.6-11.1-4.3q-6.6-2.6-13.4-4.7-6.8-2-13.7-3.5-6.9-1.5-13.9-2.3-7.1-0.9-14.1-1.2-7.1 0.3-14.1 1.1-7 0.9-13.8 2.4-6.9 1.5-13.7 3.5-6.7 2.1-13.3 4.7l-10.7 4.5-27.9-44.6-0.8-5.6c-8.5 23.5-20.7 48.2-38.1 66.2l5.1 13.4-0.3 3.1c-6.5 56.7-11.5 124.3-8.5 134.7 3.1 10.4 30.9 45.1 48.8 66.9l3.1 3.7v4.7c0 0.5 0 43.9 11.1 74.1 1.1 3.6 2.8 6.9 4.9 9.9 2.2 3 4.8 5.7 7.8 7.9 3 2.1 6.3 3.8 9.9 4.9 3.5 1.2 7.2 1.7 10.9 1.7 2.8-0.1 5.6-0.6 8.2-1.4 2.7-0.9 5.3-2.1 7.6-3.6 2.4-1.6 4.5-3.4 6.3-5.5 1.9-2.2 3.4-4.5 4.6-7 4.4-8.5 6.6-22.4 6.6-41.6h11.1q-0.1 5.3 0.3 10.6 0.4 5.3 1.3 10.5 0.9 5.3 2.2 10.4 1.4 5.2 3.2 10.2c1.3 2.5 2.8 4.8 4.7 6.9 1.9 2.1 4.1 4 6.4 5.5 2.4 1.5 5 2.7 7.7 3.6 2.6 0.8 5.4 1.3 8.2 1.4 3.7 0 7.4-0.5 11-1.6 3.5-1.2 6.8-2.8 9.8-5 3-2.2 5.6-4.8 7.8-7.8 2.1-3 3.8-6.4 4.9-9.9 11.2-30.3 11.2-73.7 11.2-74.2v-4.7z"/>
	<path id="Layer" class="s8" d="m342.6 412.8h-54.1v0.6c0.4 9.2 4.3 17.9 10.9 24.2 6.6 6.4 15.4 9.9 24.6 9.9 9.2 0 18-3.5 24.6-9.9 6.7-6.3 10.6-15 10.9-24.2v-0.6z"/>
	<path id="Layer" class="s0" d="m302 412.8v0.6c0 5.4 2.2 10.6 6 14.4 3.8 3.8 8.9 5.9 14.3 5.9 5.4 0 10.6-2.1 14.4-5.9 3.8-3.8 5.9-9 5.9-14.4v-0.6z"/>
	<path id="Layer" class="s8" d="m319.3 412.8c1.1 0 1.8 2.9 1.5 4.6q-0.2 1-0.7 1.9-0.5 0.8-1.2 1.5-0.8 0.6-1.7 0.9-1 0.4-2 0.3 0.3 1.4 1 2.5 0.7 1.2 1.7 2.1 1 1 2.2 1.5 1.3 0.6 2.6 0.8c1.2 0.1 2.3 0.1 3.5-0.2 1.1-0.3 2.2-0.8 3.1-1.5 1-0.7 1.8-1.6 2.4-2.6 0.6-1 1-2.1 1.2-3.2 0.5-3.6-1.3-8.7-4.2-8.7z"/>
	<path id="Layer" class="s8" d="m212.1 412.8h-54.1v0.6c0.3 9.2 4.2 17.9 10.8 24.2 6.7 6.4 15.5 9.9 24.7 9.9 9.1 0 18-3.5 24.6-9.9 6.6-6.3 10.5-15 10.9-24.2v-0.6z"/>
	<path id="Layer" class="s0" d="m171.5 412.8v0.6c0.3 5.2 2.5 10.1 6.3 13.7 3.8 3.5 8.8 5.5 14 5.5 5.2 0 10.2-2 14-5.5 3.7-3.6 6-8.5 6.3-13.7v-0.6z"/>
	<path id="Layer" class="s8" d="m198 412.8h-9.5-0.3c1.3 0 1.9 2.9 1.7 4.6q-0.2 1-0.7 1.9-0.5 0.8-1.3 1.5-0.7 0.6-1.7 0.9-0.9 0.4-1.9 0.3c0.4 2.2 1.5 4.1 3.2 5.4 1.7 1.4 3.8 2.1 5.9 2 2.2 0 4.2-0.9 5.8-2.3 1.6-1.4 2.7-3.4 2.9-5.6 0.6-3.5-1.1-8.7-4.1-8.7z"/>
	<path id="Layer" class="s6" d="m338.5 397.1c2.3-2.5 21.6-24-4.2-24-23.3 0-40.1 18.5-44.7 24z"/>
	<path id="Layer" class="s7" d="m227.3 397.1c-4.4-5.6-21.2-24-44.6-24-25.8 0-6.5 21.5-4.3 24z"/>
	<path id="Layer" class="s7" d="m103.4 251.6c1.5-21.1 23.8-71.7 45.1-114.3l5.6 39c-2.2 14.5-12 71.7-38.5 107.7z"/>
	<path id="Layer" class="s6" d="m363.5 173l5.2-35.9c21.3 42.6 43.6 93.2 45.1 114.3l-11.9 31.7c-28.7-39.5-37.7-104-38.4-110.1z"/>
	<g id="Layer">
		<path id="Layer" class="s8" d="m238.7 602.5c-10-7.5-20.2-16.7-20.2-24.1 0-4.8 8.5-19.4 8.5-19.4h63.4c0 0 8.3 12.9 8.3 19.4 0 6.4-10.3 15.8-20.7 23.3-3.5-5.9-7.9-6.9-10-2.3q-0.4 1.2-0.7 2.4-0.2 1.2-0.3 2.4-0.1 1.2-0.1 2.4 0.1 1.2 0.3 2.4c-5.6 3.6-9.7 5.6-9.7 5.6 0 0-3.2-1.8-7.7-4.7q0.3-1.4 0.4-2.7 0.1-1.4 0-2.7 0-1.4-0.3-2.7-0.3-1.4-0.7-2.6c-2.1-4.8-6.6-3.7-10.2 2.5z"/>
	</g>
</svg>